<svg width="120" height="120" viewBox="0 0 120 120" fill="none" xmlns="http://www.w3.org/2000/svg">
<rect width="120" height="120" fill="#EDD6FF"/>
<path d="M84.0625 44.6875H60.7301L53.1449 39C52.3865 38.4341 51.4662 38.1273 50.5199 38.125H35.9375C34.7772 38.125 33.6644 38.5859 32.8439 39.4064C32.0234 40.2269 31.5625 41.3397 31.5625 42.5V79.6875C31.5625 80.8478 32.0234 81.9606 32.8439 82.7811C33.6644 83.6016 34.7772 84.0625 35.9375 84.0625H84.3059C85.4012 84.0611 86.4513 83.6253 87.2258 82.8508C88.0003 82.0763 88.4361 81.0262 88.4375 79.9309V49.0625C88.4375 47.9022 87.9766 46.7894 87.1561 45.9689C86.3356 45.1484 85.2228 44.6875 84.0625 44.6875ZM84.0625 79.6875H35.9375V42.5H50.5199L58.1051 48.1875C58.8635 48.7534 59.7838 49.0602 60.7301 49.0625H84.0625V79.6875Z" fill="#240B37"/>
</svg>
