<svg width="272" height="182" viewBox="0 0 272 182" fill="none" xmlns="http://www.w3.org/2000/svg">
<rect width="272" height="181" transform="translate(0 0.157715)" fill="#F5F5F5"/>
<path d="M72 50.1577H200V131.158H72V50.1577Z" fill="white"/>
<path d="M200 50.1577V131.158H72V50.1577H200ZM73.5 129.658H198.5V51.6577H73.5V129.658Z" fill="#2194EB"/>
<path d="M195 46.1577H204V55.1577H195V46.1577Z" fill="white"/>
<path d="M204 46.1577V55.1577H195V46.1577H204ZM196.5 53.6577H202.5V47.6577H196.5V53.6577Z" fill="#2194EB"/>
<path d="M195 126.158H204V135.158H195V126.158Z" fill="white"/>
<path d="M204 126.158V135.158H195V126.158H204ZM196.5 133.658H202.5V127.658H196.5V133.658Z" fill="#2194EB"/>
<path d="M68 46.1577H77V55.1577H68V46.1577Z" fill="white"/>
<path d="M77 46.1577V55.1577H68V46.1577H77ZM69.5 53.6577H75.5V47.6577H69.5V53.6577Z" fill="#2194EB"/>
<path d="M68 126.158H77V135.158H68V126.158Z" fill="white"/>
<path d="M77 126.158V135.158H68V126.158H77ZM69.5 133.658H75.5V127.658H69.5V133.658Z" fill="#2194EB"/>
<g filter="url(#filter0_d_4173_1671)">
<path fill-rule="evenodd" clip-rule="evenodd" d="M193.847 91.0051C194.65 90.2029 195.846 89.9437 196.909 90.342L218.123 98.2973C219.309 98.742 220.067 99.9062 219.995 101.17C219.923 102.435 219.037 103.505 217.809 103.812L208.886 106.043L206.655 114.966C206.348 116.195 205.277 117.081 204.013 117.153C202.748 117.225 201.584 116.466 201.14 115.281L193.184 94.0664C192.786 93.0042 193.045 91.8072 193.847 91.0051Z" fill="white"/>
</g>
<path fill-rule="evenodd" clip-rule="evenodd" d="M196.233 92.1479C195.879 92.0151 195.48 92.1015 195.212 92.3689C194.945 92.6363 194.858 93.0353 194.991 93.3893L202.946 114.604C203.095 114.999 203.483 115.252 203.904 115.228C204.326 115.204 204.682 114.908 204.785 114.499L207.296 104.453L217.342 101.942C217.752 101.839 218.047 101.482 218.071 101.061C218.095 100.639 217.842 100.251 217.447 100.103L196.233 92.1479Z" fill="black"/>
<defs>
<filter id="filter0_d_4173_1671" x="190" y="88.1577" width="33" height="33" filterUnits="userSpaceOnUse" color-interpolation-filters="sRGB">
<feFlood flood-opacity="0" result="BackgroundImageFix"/>
<feColorMatrix in="SourceAlpha" type="matrix" values="0 0 0 0 0 0 0 0 0 0 0 0 0 0 0 0 0 0 127 0" result="hardAlpha"/>
<feOffset dy="1"/>
<feGaussianBlur stdDeviation="1.5"/>
<feColorMatrix type="matrix" values="0 0 0 0 0 0 0 0 0 0 0 0 0 0 0 0 0 0 0.35 0"/>
<feBlend mode="normal" in2="BackgroundImageFix" result="effect1_dropShadow_4173_1671"/>
<feBlend mode="normal" in="SourceGraphic" in2="effect1_dropShadow_4173_1671" result="shape"/>
</filter>
</defs>
</svg>
