<svg width="32" height="32" viewBox="0 0 32 32" fill="none" xmlns="http://www.w3.org/2000/svg">
<g clip-path="url(#clip0_3610_1976)">
<rect width="32" height="32" rx="8" fill="#222222"/>
<rect width="32" height="32" rx="8" fill="url(#paint0_linear_3610_1976)"/>
<g opacity="0.5" filter="url(#filter0_f_3610_1976)">
<path d="M16 15.6741C16.0001 14.9649 16.279 14.2848 16.7755 13.7833C17.2719 13.2819 17.9452 13.0002 18.6473 13.0002H19.0302C19.4229 12.9958 19.8126 13.0701 20.1767 13.2189C20.5408 13.3677 20.8721 13.588 21.1514 13.867C21.4306 14.146 21.6523 14.4782 21.8036 14.8444C21.955 15.2105 22.0329 15.6033 22.0329 16.0001C22.0329 16.3969 21.955 16.7897 21.8036 17.1559C21.6523 17.522 21.4306 17.8542 21.1514 18.1332C20.8721 18.4122 20.5408 18.6325 20.1767 18.7813C19.8126 18.9301 19.4229 19.0045 19.0302 19.0001H18.6473C17.9453 19 17.2721 18.7182 16.7757 18.2168C16.2794 17.7153 16.0005 17.0353 16.0004 16.3261L16 15.6741Z" fill="#00B6FF"/>
<path d="M10 22.0001C10 21.2044 10.3129 20.4413 10.8698 19.8787C11.4268 19.3161 12.1822 19 12.9698 19H16V21.9693C16 23.6433 14.6418 24.9999 12.9847 24.9999C11.3447 24.9999 10 23.6569 10 22.0001Z" fill="#24CB71"/>
<path d="M16 7.00018V13.0001H19.0302C19.4229 13.0045 19.8126 12.9301 20.1767 12.7813C20.5408 12.6325 20.8721 12.4122 21.1514 12.1332C21.4306 11.8542 21.6523 11.522 21.8036 11.1559C21.955 10.7897 22.0329 10.3969 22.0329 10.0001C22.0329 9.60335 21.955 9.21051 21.8036 8.84436C21.6523 8.47821 21.4306 8.14602 21.1514 7.86701C20.8721 7.588 20.5408 7.36773 20.1767 7.21894C19.8126 7.07015 19.4229 6.99579 19.0302 7.00018H16Z" fill="#FF7237"/>
<path d="M10 9.99976C10 10.7954 10.3129 11.5585 10.8698 12.1212C11.4268 12.6838 12.1822 12.9999 12.9698 12.9999H16V7H12.9698C12.1822 7 11.4269 7.31603 10.87 7.87859C10.313 8.44114 10.0001 9.20414 10 9.99976Z" fill="#FF3737"/>
<path d="M10 15.9998C10 16.7954 10.3129 17.5585 10.8698 18.1212C11.4268 18.6838 12.1822 18.9999 12.9698 18.9999H16V13H12.9698C12.1822 13 11.4269 13.316 10.87 13.8786C10.313 14.4411 10.0001 15.2041 10 15.9998Z" fill="#874FFF"/>
</g>
<g filter="url(#filter1_di_3610_1976)">
<path d="M16 15.6741C16.0001 14.9649 16.279 14.2848 16.7755 13.7833C17.2719 13.2819 17.9452 13.0002 18.6473 13.0002H19.0302C19.4229 12.9958 19.8126 13.0701 20.1767 13.2189C20.5408 13.3677 20.8721 13.588 21.1514 13.867C21.4306 14.146 21.6523 14.4782 21.8036 14.8444C21.955 15.2105 22.0329 15.6033 22.0329 16.0001C22.0329 16.3969 21.955 16.7897 21.8036 17.1559C21.6523 17.522 21.4306 17.8542 21.1514 18.1332C20.8721 18.4122 20.5408 18.6325 20.1767 18.7813C19.8126 18.9301 19.4229 19.0045 19.0302 19.0001H18.6473C17.9453 19 17.2721 18.7182 16.7757 18.2168C16.2794 17.7153 16.0005 17.0353 16.0004 16.3261L16 15.6741Z" fill="#00B6FF"/>
<path d="M10 22.0001C10 21.2044 10.3129 20.4413 10.8698 19.8787C11.4268 19.3161 12.1822 19 12.9698 19H16V21.9693C16 23.6433 14.6418 24.9999 12.9847 24.9999C11.3447 24.9999 10 23.6569 10 22.0001Z" fill="#24CB71"/>
<path d="M16 7.00018V13.0001H19.0302C19.4229 13.0045 19.8126 12.9301 20.1767 12.7813C20.5408 12.6325 20.8721 12.4122 21.1514 12.1332C21.4306 11.8542 21.6523 11.522 21.8036 11.1559C21.955 10.7897 22.0329 10.3969 22.0329 10.0001C22.0329 9.60335 21.955 9.21051 21.8036 8.84436C21.6523 8.47821 21.4306 8.14602 21.1514 7.86701C20.8721 7.588 20.5408 7.36773 20.1767 7.21894C19.8126 7.07015 19.4229 6.99579 19.0302 7.00018H16Z" fill="#FF7237"/>
<path d="M10 9.99976C10 10.7954 10.3129 11.5585 10.8698 12.1212C11.4268 12.6838 12.1822 12.9999 12.9698 12.9999H16V7H12.9698C12.1822 7 11.4269 7.31603 10.87 7.87859C10.313 8.44114 10.0001 9.20414 10 9.99976Z" fill="#FF3737"/>
<path d="M10 15.9998C10 16.7954 10.3129 17.5585 10.8698 18.1212C11.4268 18.6838 12.1822 18.9999 12.9698 18.9999H16V13H12.9698C12.1822 13 11.4269 13.316 10.87 13.8786C10.313 14.4411 10.0001 15.2041 10 15.9998Z" fill="#874FFF"/>
</g>
</g>
<defs>
<filter id="filter0_f_3610_1976" x="2.8" y="-0.2" width="26.4332" height="32.4" filterUnits="userSpaceOnUse" color-interpolation-filters="sRGB">
<feFlood flood-opacity="0" result="BackgroundImageFix"/>
<feBlend mode="normal" in="SourceGraphic" in2="BackgroundImageFix" result="shape"/>
<feGaussianBlur stdDeviation="3.6" result="effect1_foregroundBlur_3610_1976"/>
</filter>
<filter id="filter1_di_3610_1976" x="6.2" y="7" width="19.6332" height="26.8" filterUnits="userSpaceOnUse" color-interpolation-filters="sRGB">
<feFlood flood-opacity="0" result="BackgroundImageFix"/>
<feColorMatrix in="SourceAlpha" type="matrix" values="0 0 0 0 0 0 0 0 0 0 0 0 0 0 0 0 0 0 127 0" result="hardAlpha"/>
<feOffset dy="5"/>
<feGaussianBlur stdDeviation="1.9"/>
<feComposite in2="hardAlpha" operator="out"/>
<feColorMatrix type="matrix" values="0 0 0 0 0 0 0 0 0 0 0 0 0 0 0 0 0 0 0.45 0"/>
<feBlend mode="normal" in2="BackgroundImageFix" result="effect1_dropShadow_3610_1976"/>
<feBlend mode="normal" in="SourceGraphic" in2="effect1_dropShadow_3610_1976" result="shape"/>
<feColorMatrix in="SourceAlpha" type="matrix" values="0 0 0 0 0 0 0 0 0 0 0 0 0 0 0 0 0 0 127 0" result="hardAlpha"/>
<feOffset dy="1"/>
<feGaussianBlur stdDeviation="1.65"/>
<feComposite in2="hardAlpha" operator="arithmetic" k2="-1" k3="1"/>
<feColorMatrix type="matrix" values="0 0 0 0 0 0 0 0 0 0 0 0 0 0 0 0 0 0 0.25 0"/>
<feBlend mode="normal" in2="shape" result="effect2_innerShadow_3610_1976"/>
</filter>
<linearGradient id="paint0_linear_3610_1976" x1="16" y1="0" x2="16" y2="32" gradientUnits="userSpaceOnUse">
<stop stop-color="#D9D9D9" stop-opacity="0"/>
<stop offset="1" stop-opacity="0.12"/>
</linearGradient>
<clipPath id="clip0_3610_1976">
<rect width="32" height="32" rx="8" fill="white"/>
</clipPath>
</defs>
</svg>
