<svg width="32" height="32" viewBox="0 0 32 32" fill="none" xmlns="http://www.w3.org/2000/svg">
<rect width="32" height="32" rx="8" fill="#1C1E21"/>
<rect width="32" height="32" rx="8" fill="url(#paint0_linear_4306_2349)"/>
<g filter="url(#filter0_di_4306_2349)">
<path d="M21.1347 25.5697C22.6386 24.6002 23.6783 19.4006 23.4496 17.8523C23.4496 17.8523 23.2112 17.0211 22.6296 17.021C22.048 17.021 21.806 17.6437 21.806 17.6437C21.806 17.6437 21.6529 18.2185 21.4126 18.9424C21.041 20.062 20.8846 21.4435 19.9153 21.7933C18.946 22.1431 17.9766 21.8121 17.9766 21.8121C18.6357 24.3524 19.6308 26.5392 21.1347 25.5697Z" fill="white"/>
<path fill-rule="evenodd" clip-rule="evenodd" d="M13.6816 16.0548C13.1291 16.1177 12.8381 16.3299 12.74 16.4296C12.3522 16.8236 12.1583 17.2177 12.1583 17.4147C12.1583 17.6117 11.7022 16.4924 11.602 16.3875C11.3036 16.0753 11.3108 15.5764 11.6181 15.2732C12.0494 14.8476 12.7548 14.5744 13.5088 14.4885C14.2908 14.3994 15.218 14.4987 16.1564 14.921C17.2514 15.4139 17.838 16.4532 18.0595 17.403C18.172 17.8851 18.2007 18.3805 18.143 18.8321C18.0871 19.2704 17.9398 19.7392 17.6335 20.0959C16.9954 20.8391 16.0542 20.7554 15.5451 20.6456C15.2582 20.5838 15.0052 20.4929 14.8272 20.42C14.7369 20.383 14.6628 20.3493 14.6095 20.324C14.5828 20.3113 14.5612 20.3006 14.5452 20.2926C14.5373 20.2885 14.5307 20.2852 14.5256 20.2825L14.519 20.2791L14.5165 20.2778L14.515 20.2771C14.515 20.2771 14.5146 20.2768 14.8728 19.5778L14.515 20.2771C14.1351 20.0761 13.9871 19.6 14.1849 19.2139C14.3823 18.8287 14.8492 18.6785 15.2286 18.8777M15.2286 18.8777L15.2342 18.8806C15.2405 18.8837 15.2517 18.8893 15.2673 18.8967C15.2986 18.9116 15.3466 18.9335 15.4073 18.9584C15.5312 19.0091 15.6948 19.0668 15.867 19.1039C16.276 19.1921 16.4231 19.1084 16.4648 19.0598C16.4984 19.0206 16.5716 18.8901 16.6049 18.6294C16.6365 18.382 16.6231 18.0788 16.5503 17.7665C16.4012 17.1273 16.0444 16.5943 15.5282 16.362C14.8552 16.0592 14.206 15.995 13.6816 16.0548" fill="white"/>
<path fill-rule="evenodd" clip-rule="evenodd" d="M8.55599 7.91235C8.36737 8.30307 8.52618 8.7752 8.91071 8.96687C9.46303 9.24217 9.94232 9.51362 10.4169 10.0573C10.7011 10.3829 11.1912 10.4127 11.5117 10.1239C11.8321 9.83513 11.8614 9.33709 11.5772 9.01149C10.901 8.23678 10.2049 7.85652 9.59379 7.5519C9.20925 7.36024 8.74462 7.52161 8.55599 7.91235Z" fill="white"/>
<path fill-rule="evenodd" clip-rule="evenodd" d="M12.7478 5.61795C12.3322 5.72351 12.0796 6.15135 12.1835 6.57357C12.2561 6.86854 12.3238 7.12077 12.3857 7.35166C12.5043 7.79359 12.602 8.15737 12.6728 8.59319C12.7425 9.02259 13.1416 9.31323 13.5642 9.24234C13.9868 9.17145 14.2728 8.76589 14.203 8.33649C14.1194 7.82138 13.989 7.33401 13.8582 6.84481C13.8004 6.6282 13.7423 6.41122 13.6882 6.19132C13.5844 5.76911 13.1633 5.5124 12.7478 5.61795Z" fill="white"/>
<path fill-rule="evenodd" clip-rule="evenodd" d="M17.1803 6.10272C16.8141 5.87695 16.3372 5.99556 16.115 6.36763C15.7087 7.04806 15.3886 7.90352 15.2683 8.84171C15.213 9.27328 15.5125 9.66869 15.9372 9.72489C16.3619 9.78108 16.751 9.47679 16.8064 9.04522C16.8974 8.33427 17.1415 7.6868 17.441 7.1852C17.6632 6.81312 17.5464 6.32848 17.1803 6.10272Z" fill="white"/>
<path fill-rule="evenodd" clip-rule="evenodd" d="M18.8857 12.4897C20.4242 12.8021 20.4244 12.8009 20.4244 12.8009L20.4247 12.7998L20.4251 12.7973L20.426 12.7924L20.4279 12.7818C20.4291 12.7744 20.4305 12.7663 20.4318 12.7576C20.4346 12.7402 20.4375 12.7203 20.4404 12.6979C20.4461 12.6535 20.4519 12.5979 20.4558 12.5337C20.4632 12.4098 20.4647 12.2299 20.4335 12.0212C20.3745 11.6258 20.1479 10.8763 19.3493 10.4419L19.1913 10.3559L19.0187 10.3074L18.6217 11.8107C18.9757 12.0033 18.8857 12.4897 18.8857 12.4897ZM18.6397 13.4815L18.8857 12.4897L20.4242 12.8021L20.4157 12.8479L20.1674 13.8491C20.1196 14.0952 20.1133 14.2359 20.1159 14.3102C20.118 14.3707 20.1258 14.3906 20.1296 14.4003L20.13 14.4015C20.1397 14.4266 20.1649 14.4811 20.2567 14.6226C20.2941 14.6803 20.333 14.7381 20.3826 14.8117C20.3957 14.8312 20.4095 14.8518 20.4243 14.8738C20.4909 14.973 20.5689 15.0899 20.6515 15.2207C21.1675 16.0378 21.2181 16.822 21.2154 17.3246C21.2154 17.3319 21.2153 17.3393 21.2153 17.3466C21.2769 17.3681 21.3425 17.3898 21.4121 17.4123C21.435 17.4197 21.4655 17.4295 21.4974 17.4398C21.5423 17.4541 21.5901 17.4695 21.6243 17.4806C21.6916 17.5026 21.7775 17.5311 21.8605 17.5625C21.9183 17.5844 21.9738 17.6063 22.0259 17.6282C22.0761 17.6493 22.1372 17.6763 22.2015 17.7093C22.2515 17.7349 22.3327 17.7788 22.4246 17.8436L23.2327 18.1969L23.221 19.2488C23.2141 19.8672 22.9692 20.5193 22.7955 20.9229C22.6041 21.3679 22.3511 21.8425 22.1182 22.158C21.7929 22.5985 21.4243 23.0637 20.981 23.3612C20.7196 23.5365 20.404 23.676 20.0316 23.7217C19.6998 23.7625 19.4127 23.7173 19.2017 23.6651L19.1395 23.6522C19.0771 23.6391 18.9875 23.6203 18.8785 23.5973C18.6607 23.5512 18.3639 23.4878 18.0492 23.4183C17.4689 23.2902 16.6823 23.1111 16.3112 22.986L16.2844 22.9769L16.2579 22.967C16.0934 22.9049 15.8151 22.8352 15.3543 22.7285C15.3264 22.7219 15.298 22.7154 15.2691 22.7087C14.8715 22.6168 14.3822 22.5036 13.9189 22.361C13.439 22.2133 12.8454 21.9937 12.3415 21.6358C11.8125 21.2602 11.2111 20.5978 11.1775 19.6043C11.1725 19.4556 11.1759 19.3118 11.1849 19.1754C10.9467 18.913 10.7468 18.57 10.6458 18.1309C10.5473 17.7029 10.6018 17.3236 10.6709 17.0574C10.7401 16.7904 10.8453 16.5571 10.9332 16.3827C10.9629 16.3238 10.9937 16.2657 11.0243 16.2096C10.7335 16.1164 10.4051 16.0012 10.0855 15.8627C9.66795 15.6819 9.07557 15.3835 8.63333 14.902C8.39514 14.6426 8.14574 14.2708 8.0449 13.7848C7.93937 13.2761 8.02706 12.7881 8.23255 12.3702C8.73277 11.3529 9.68825 10.9935 10.5381 10.9624C11.3055 10.9343 12.122 11.1525 12.8536 11.4132C13.5202 11.6508 14.4743 12.0927 15.2848 12.4775C15.5518 12.0327 15.9037 11.5301 16.2368 11.1242L16.303 11.0435L16.3796 10.9727C16.9528 10.4426 17.5967 10.2643 18.0873 10.2261C18.3279 10.2074 18.5349 10.2213 18.6899 10.2418C18.7681 10.2521 18.8357 10.2644 18.8905 10.2761C18.9179 10.2819 18.9425 10.2876 18.9639 10.2929C18.9745 10.2956 18.9845 10.2981 18.9936 10.3006L19.0067 10.3041L19.0129 10.3057L19.0158 10.3066L19.0172 10.307C19.0172 10.307 19.0187 10.3074 18.6217 11.8107C18.6217 11.8107 18.0026 11.6365 17.4704 12.1139C17.4651 12.1187 17.4597 12.1236 17.4543 12.1285C17.4379 12.1487 17.4213 12.169 17.4047 12.1896C17.3809 12.2192 17.3571 12.2493 17.3332 12.2799C17.3262 12.2888 17.3192 12.2978 17.3123 12.3068C16.7811 12.9915 16.8126 13.2776 15.8431 14.4597C15.8431 14.4597 15.3381 14.2221 15.0361 14.0778C14.8288 13.9788 14.6097 13.8742 14.3865 13.7687C13.6663 13.4284 12.9028 13.0795 12.3533 12.8837C11.0006 12.4016 10.0033 12.3404 9.63926 13.0806C9.15906 14.0572 11.1091 14.623 12.0889 14.9074C12.2952 14.9673 12.4585 15.0146 12.5471 15.0507C13.0497 15.2557 13.0847 15.667 12.9351 16.0356C12.8477 16.2507 12.7979 16.372 12.5473 16.6266C12.1595 17.0207 12.0959 17.4872 12.17 17.809C12.2071 17.9702 12.2804 18.0874 12.3676 18.1726C12.6015 18.4012 12.935 18.3998 12.935 18.3998C12.935 18.3998 12.7199 18.9582 12.741 19.5819C12.7456 19.7192 12.7819 19.8441 12.8445 19.9584C13.2163 20.6366 14.5145 20.9371 15.6052 21.1895C16.0633 21.2956 16.4848 21.3931 16.7857 21.5066C17.3251 21.6885 19.5265 22.1429 19.5265 22.1429C19.9328 22.2512 20.1847 22.1201 20.8528 21.2151C21.1303 20.8392 21.6504 19.7759 21.6567 19.2012C21.5723 19.1643 21.5665 19.1515 21.5605 19.1385C21.5524 19.1208 21.5442 19.1029 21.3309 19.0222C21.2595 18.9951 21.164 18.9645 21.0547 18.9295C20.5999 18.7837 19.9061 18.5614 19.7207 18.2028C19.6306 18.0287 19.6377 17.7951 19.646 17.522C19.6589 17.0973 19.6747 16.5769 19.3329 16.0358C19.2491 15.9029 19.1686 15.7833 19.0933 15.6715C18.6648 15.0349 18.4048 14.6487 18.6397 13.4815ZM11.474 15.404C11.475 15.4011 11.4747 15.4018 11.4734 15.4057L11.474 15.404ZM21.2075 17.8258C21.2075 17.8258 21.2075 17.8196 21.2063 17.809C21.2067 17.8207 21.2075 17.8258 21.2075 17.8258Z" fill="white"/>
</g>
<defs>
<filter id="filter0_di_4306_2349" x="4.2" y="3.2" width="23.6" height="28.6" filterUnits="userSpaceOnUse" color-interpolation-filters="sRGB">
<feFlood flood-opacity="0" result="BackgroundImageFix"/>
<feColorMatrix in="SourceAlpha" type="matrix" values="0 0 0 0 0 0 0 0 0 0 0 0 0 0 0 0 0 0 127 0" result="hardAlpha"/>
<feOffset dy="2"/>
<feGaussianBlur stdDeviation="1.9"/>
<feComposite in2="hardAlpha" operator="out"/>
<feColorMatrix type="matrix" values="0 0 0 0 0 0 0 0 0 0 0 0 0 0 0 0 0 0 0.45 0"/>
<feBlend mode="normal" in2="BackgroundImageFix" result="effect1_dropShadow_4306_2349"/>
<feBlend mode="normal" in="SourceGraphic" in2="effect1_dropShadow_4306_2349" result="shape"/>
<feColorMatrix in="SourceAlpha" type="matrix" values="0 0 0 0 0 0 0 0 0 0 0 0 0 0 0 0 0 0 127 0" result="hardAlpha"/>
<feOffset dy="1"/>
<feGaussianBlur stdDeviation="0.5"/>
<feComposite in2="hardAlpha" operator="arithmetic" k2="-1" k3="1"/>
<feColorMatrix type="matrix" values="0 0 0 0 0 0 0 0 0 0 0 0 0 0 0 0 0 0 0.25 0"/>
<feBlend mode="normal" in2="shape" result="effect2_innerShadow_4306_2349"/>
</filter>
<linearGradient id="paint0_linear_4306_2349" x1="16" y1="0" x2="16" y2="32" gradientUnits="userSpaceOnUse">
<stop stop-color="#D9D9D9" stop-opacity="0"/>
<stop offset="1" stop-opacity="0.12"/>
</linearGradient>
</defs>
</svg>
