<svg width="32" height="32" viewBox="0 0 32 32" fill="none" xmlns="http://www.w3.org/2000/svg">
<g clip-path="url(#clip0_3610_2004)">
<rect width="32" height="32" rx="8" fill="#F6F5F4"/>
<rect width="32" height="32" rx="8" fill="url(#paint0_linear_3610_2004)"/>
<g opacity="0.8" filter="url(#filter0_f_3610_2004)">
<path d="M27.3271 7.53286C27.7616 7.92506 28 8.46318 28 9.04777V25.0194C28 25.0259 27.9998 25.0323 27.9994 25.0387C27.9984 25.0593 27.9962 25.0797 27.9962 25.1003L27.9981 25.1096C27.9981 26.0734 27.2142 26.9089 26.2294 27.0251C26.159 27.0362 26.0885 27.0446 26.0161 27.0493L9.77795 27.9953C9.72679 27.9981 9.67659 28 9.62639 28C9.6206 28 9.61505 27.9995 9.60949 27.999C9.60394 27.9986 9.59839 27.9981 9.5926 27.9981C9.58101 27.9981 9.56967 27.9986 9.55832 27.999C9.54698 27.9995 9.53564 28 9.52405 28C8.94578 28 8.40418 27.7956 7.98616 27.4173C7.53339 27.0074 7.28142 26.4451 7.28142 25.8355V25.0761C7.28142 24.9218 7.25052 24.8391 7.0642 24.8391C7.0642 24.8391 6.5535 24.8484 6.5004 24.8484C5.85551 24.8484 5.25213 24.6198 4.78584 24.1979C4.28093 23.7406 4.0029 23.1141 4.0029 22.4348L4 7.58118C4 6.20103 5.16428 5.00862 6.59501 4.92311L22.0097 4.00487C22.7134 3.96305 23.3805 4.19168 23.8855 4.64801C24.3903 5.10435 24.6684 5.72983 24.6684 6.41014V6.87949C24.6684 6.87949 24.6587 7.03656 24.8702 7.03005L25.7149 6.98079C26.3202 6.94362 26.8927 7.14065 27.3271 7.53286Z" fill="white"/>
<path d="M6.60374 23.8702C6.17027 23.8655 5.78508 23.7587 5.4858 23.4901C5.4858 23.4901 5.48483 23.4901 5.48387 23.4882C5.44911 23.4557 5.41629 23.4222 5.3854 23.3888C5.14887 23.1285 5.02047 22.7949 5.02047 22.4343L5.01758 7.58068C5.01758 6.72099 5.7706 5.94959 6.66167 5.89661L22.0744 4.97837C22.1082 4.97652 22.141 4.97559 22.1748 4.97559C22.56 4.97559 22.9191 5.10942 23.1933 5.3585C23.2309 5.39288 23.2666 5.4282 23.2995 5.46538C23.3568 5.52834 23.4077 5.59555 23.4521 5.66653C23.4077 5.59605 23.3566 5.52907 23.2995 5.46631C23.5302 5.72468 23.6567 6.05369 23.6567 6.41057V6.79069C23.6567 6.79069 23.6663 7.10204 23.3458 7.12249L23.3477 7.12435L9.17172 7.97939C8.13198 8.04166 7.28725 8.90879 7.28725 9.91159C7.28725 9.91159 7.28145 23.6211 7.28049 23.6434C7.26987 23.8702 7.07582 23.8702 6.91556 23.8702H6.60374Z" fill="black"/>
<path d="M26.986 25.0861C26.9879 25.0638 26.9899 25.0414 26.9899 25.0191L26.986 8.96755C26.9802 8.88298 26.9657 8.80026 26.9416 8.72126C26.8856 8.53631 26.7813 8.36995 26.6336 8.23705C26.4222 8.04652 26.1461 7.94336 25.8497 7.94336C25.8237 7.94336 25.7976 7.94428 25.7715 7.94615L9.32099 8.93874C9.3152 8.93914 9.30941 8.94005 9.30362 8.94096C9.29589 8.94217 9.28817 8.94339 9.28044 8.94339C8.7572 8.99543 8.3189 9.43597 8.28318 9.94062C8.28125 9.96294 8.28125 9.98431 8.28125 10.0066V25.7339C8.28125 25.7414 8.28175 25.7487 8.28224 25.7559C8.28271 25.7629 8.28318 25.7697 8.28318 25.7766C8.2938 26.1288 8.43957 26.4504 8.69927 26.6856C8.93097 26.8956 9.22831 27.0145 9.54979 27.0304H9.60096L26.0428 26.0722C26.0476 26.0722 26.0525 26.0714 26.0572 26.0708C26.0608 26.0702 26.0644 26.0697 26.0679 26.0695C26.0692 26.0694 26.0705 26.0694 26.0718 26.0694C26.5573 25.9829 26.9522 25.5628 26.986 25.0861ZM10.8608 25.2924C10.298 25.3305 9.79983 25.1465 9.81528 24.4364V13.384C9.81528 13.0048 10.1397 12.7623 10.4978 12.7446L24.809 11.9184C25.1662 11.9007 25.4587 12.1498 25.4587 12.4946V23.5665C25.4587 23.9717 25.3535 24.4931 24.6294 24.5201H24.6275L24.6265 24.521L10.8608 25.2924Z" fill="black"/>
<path d="M16.7916 15.8551C16.121 15.895 15.8931 16.3882 15.894 17.1463V17.2796C15.814 17.2977 15.7471 17.3149 15.6661 17.3194C15.1829 17.3485 14.8345 16.9704 14.8335 16.2921C14.8326 15.2548 15.797 14.2783 17.6346 14.1686C19.2706 14.0706 20.3179 14.8323 20.3198 16.1761C20.3207 17.187 19.4505 17.9052 18.5915 18.1291C20.2011 18.2053 20.8727 19.0703 20.8745 20.1738C20.8765 22.0634 19.4429 23.1334 17.2296 23.2667L17.1759 23.2702C15.5126 23.37 14.3447 22.7616 14.3438 21.7107C14.3438 21.1123 14.7987 20.6054 15.4825 20.5646C15.5361 20.561 15.5898 20.5719 15.6435 20.5682C15.7791 21.6382 16.5307 22.0317 17.2814 21.9864C18.0057 21.9428 18.5143 21.4732 18.5143 20.8076V20.7813C18.5133 19.7431 17.6139 19.6914 16.2595 19.6388L16.0438 18.4012C17.304 18.179 17.9341 17.7819 17.9331 17.0637C17.9331 16.2921 17.4886 15.8134 16.7916 15.8551Z" fill="black"/>
</g>
<path d="M27.3271 7.53286C27.7616 7.92506 28 8.46318 28 9.04777V25.0194C28 25.0259 27.9998 25.0323 27.9994 25.0387C27.9984 25.0593 27.9962 25.0797 27.9962 25.1003L27.9981 25.1096C27.9981 26.0734 27.2142 26.9089 26.2294 27.0251C26.159 27.0362 26.0885 27.0446 26.0161 27.0493L9.77795 27.9953C9.72679 27.9981 9.67659 28 9.62639 28C9.6206 28 9.61505 27.9995 9.60949 27.999C9.60394 27.9986 9.59839 27.9981 9.5926 27.9981C9.58101 27.9981 9.56967 27.9986 9.55832 27.999C9.54698 27.9995 9.53564 28 9.52405 28C8.94578 28 8.40418 27.7956 7.98616 27.4173C7.53339 27.0074 7.28142 26.4451 7.28142 25.8355V25.0761C7.28142 24.9218 7.25052 24.8391 7.0642 24.8391C7.0642 24.8391 6.5535 24.8484 6.5004 24.8484C5.85551 24.8484 5.25213 24.6198 4.78584 24.1979C4.28093 23.7406 4.0029 23.1141 4.0029 22.4348L4 7.58118C4 6.20103 5.16428 5.00862 6.59501 4.92311L22.0097 4.00487C22.7134 3.96305 23.3805 4.19168 23.8855 4.64801C24.3903 5.10435 24.6684 5.72983 24.6684 6.41014V6.87949C24.6684 6.87949 24.6587 7.03656 24.8702 7.03005L25.7149 6.98079C26.3202 6.94362 26.8927 7.14065 27.3271 7.53286Z" fill="white"/>
<path d="M6.60374 23.8702C6.17027 23.8655 5.78508 23.7587 5.4858 23.4901C5.4858 23.4901 5.48483 23.4901 5.48387 23.4882C5.44911 23.4557 5.41629 23.4222 5.3854 23.3888C5.14887 23.1285 5.02047 22.7949 5.02047 22.4343L5.01758 7.58068C5.01758 6.72099 5.7706 5.94959 6.66167 5.89661L22.0744 4.97837C22.1082 4.97652 22.141 4.97559 22.1748 4.97559C22.56 4.97559 22.9191 5.10942 23.1933 5.3585C23.2309 5.39288 23.2666 5.4282 23.2995 5.46538C23.3568 5.52834 23.4077 5.59555 23.4521 5.66653C23.4077 5.59605 23.3566 5.52907 23.2995 5.46631C23.5302 5.72468 23.6567 6.05369 23.6567 6.41057V6.79069C23.6567 6.79069 23.6663 7.10204 23.3458 7.12249L23.3477 7.12435L9.17172 7.97939C8.13198 8.04166 7.28725 8.90879 7.28725 9.91159C7.28725 9.91159 7.28145 23.6211 7.28049 23.6434C7.26987 23.8702 7.07582 23.8702 6.91556 23.8702H6.60374Z" fill="black"/>
<path d="M26.986 25.0861C26.9879 25.0638 26.9899 25.0414 26.9899 25.0191L26.986 8.96755C26.9802 8.88298 26.9657 8.80026 26.9416 8.72126C26.8856 8.53631 26.7813 8.36995 26.6336 8.23705C26.4222 8.04652 26.1461 7.94336 25.8497 7.94336C25.8237 7.94336 25.7976 7.94428 25.7715 7.94615L9.32099 8.93874C9.3152 8.93914 9.30941 8.94005 9.30362 8.94096C9.29589 8.94217 9.28817 8.94339 9.28044 8.94339C8.7572 8.99543 8.3189 9.43597 8.28318 9.94062C8.28125 9.96294 8.28125 9.98431 8.28125 10.0066V25.7339C8.28125 25.7414 8.28175 25.7487 8.28224 25.7559C8.28271 25.7629 8.28318 25.7697 8.28318 25.7766C8.2938 26.1288 8.43957 26.4504 8.69927 26.6856C8.93097 26.8956 9.22831 27.0145 9.54979 27.0304H9.60096L26.0428 26.0722C26.0476 26.0722 26.0525 26.0714 26.0572 26.0708C26.0608 26.0702 26.0644 26.0697 26.0679 26.0695C26.0692 26.0694 26.0705 26.0694 26.0718 26.0694C26.5573 25.9829 26.9522 25.5628 26.986 25.0861ZM10.8608 25.2924C10.298 25.3305 9.79983 25.1465 9.81528 24.4364V13.384C9.81528 13.0048 10.1397 12.7623 10.4978 12.7446L24.809 11.9184C25.1662 11.9007 25.4587 12.1498 25.4587 12.4946V23.5665C25.4587 23.9717 25.3535 24.4931 24.6294 24.5201H24.6275L24.6265 24.521L10.8608 25.2924Z" fill="black"/>
<path d="M16.7916 15.8551C16.121 15.895 15.8931 16.3882 15.894 17.1463V17.2796C15.814 17.2977 15.7471 17.3149 15.6661 17.3194C15.1829 17.3485 14.8345 16.9704 14.8335 16.2921C14.8326 15.2548 15.797 14.2783 17.6346 14.1686C19.2706 14.0706 20.3179 14.8323 20.3198 16.1761C20.3207 17.187 19.4505 17.9052 18.5915 18.1291C20.2011 18.2053 20.8727 19.0703 20.8745 20.1738C20.8765 22.0634 19.4429 23.1334 17.2296 23.2667L17.1759 23.2702C15.5126 23.37 14.3447 22.7616 14.3438 21.7107C14.3438 21.1123 14.7987 20.6054 15.4825 20.5646C15.5361 20.561 15.5898 20.5719 15.6435 20.5682C15.7791 21.6382 16.5307 22.0317 17.2814 21.9864C18.0057 21.9428 18.5143 21.4732 18.5143 20.8076V20.7813C18.5133 19.7431 17.6139 19.6914 16.2595 19.6388L16.0438 18.4012C17.304 18.179 17.9341 17.7819 17.9331 17.0637C17.9331 16.2921 17.4886 15.8134 16.7916 15.8551Z" fill="black"/>
</g>
<defs>
<filter id="filter0_f_3610_2004" x="-1.4" y="-1.4" width="34.8" height="34.8" filterUnits="userSpaceOnUse" color-interpolation-filters="sRGB">
<feFlood flood-opacity="0" result="BackgroundImageFix"/>
<feBlend mode="normal" in="SourceGraphic" in2="BackgroundImageFix" result="shape"/>
<feGaussianBlur stdDeviation="2.7" result="effect1_foregroundBlur_3610_2004"/>
</filter>
<linearGradient id="paint0_linear_3610_2004" x1="16" y1="0" x2="16" y2="32" gradientUnits="userSpaceOnUse">
<stop stop-color="#D9D9D9" stop-opacity="0"/>
<stop offset="1" stop-opacity="0.12"/>
</linearGradient>
<clipPath id="clip0_3610_2004">
<rect width="32" height="32" rx="8" fill="white"/>
</clipPath>
</defs>
</svg>
