<svg width="32" height="32" viewBox="0 0 32 32" fill="none" xmlns="http://www.w3.org/2000/svg">
<g clip-path="url(#clip0_4306_2357)">
<rect width="32" height="32" rx="8" fill="#230B51"/>
<rect width="32" height="32" rx="8" fill="url(#paint0_linear_4306_2357)"/>
<g filter="url(#filter0_di_4306_2357)">
<path d="M21.4279 25.4365C21.2947 26.442 20.3107 27.224 19.3353 26.9533C17.9432 26.5709 16.3318 25.9736 14.8838 25.8619L12.6623 25.69C12.304 25.6651 11.9675 25.5091 11.717 25.2517L7.89277 21.3115C7.68763 21.1017 7.55045 20.8349 7.4991 20.5459C7.44775 20.257 7.48461 19.9593 7.60488 19.6916C7.60488 19.6916 9.96816 14.4924 10.0584 14.2217C10.1443 13.951 10.4709 11.592 10.66 10.3287C10.7115 9.98925 10.8748 9.68417 11.1326 9.45643L15.6572 5.383C15.8064 5.24899 15.9815 5.14703 16.1717 5.08344C16.3619 5.01984 16.5631 4.99597 16.7629 5.01329C16.9627 5.03061 17.1568 5.08876 17.3332 5.18413C17.5096 5.27951 17.6646 5.41008 17.7885 5.56776L21.5869 10.3975C21.7981 10.6739 21.9129 11.012 21.9135 11.36C21.9135 12.2752 21.9908 14.1529 22.4978 15.3646C22.992 16.5377 23.8943 17.8139 24.367 18.4369C24.4569 18.5534 24.5103 18.694 24.5202 18.8409C24.5302 18.9878 24.4963 19.1343 24.4228 19.2619C23.8096 20.2909 23.1677 21.3025 22.4978 22.2955C21.8533 23.2537 21.5568 24.4396 21.4236 25.4365H21.4279Z" fill="#6C31E3"/>
<path d="M12.1269 25.5527C13.9058 21.9434 13.8543 19.3566 13.098 17.5176C12.4019 15.816 11.1086 14.7461 10.0902 14.0801C10.0644 14.1789 10.0344 14.2691 9.99569 14.3594L7.60233 19.6961C7.48152 19.9634 7.44396 20.2608 7.49454 20.5497C7.54512 20.8387 7.6815 21.1057 7.88592 21.316L11.7144 25.2562C11.8332 25.3799 11.9729 25.4818 12.1269 25.557V25.5527Z" fill="url(#paint1_radial_4306_2357)"/>
<path d="M16.9614 18.2268C17.4426 18.2783 17.9153 18.3814 18.3707 18.5533C19.8317 19.099 21.1637 20.3236 22.2594 22.6912C22.3368 22.558 22.4141 22.4248 22.5 22.2959C23.1691 21.3024 23.811 20.2908 24.425 19.2623C24.5002 19.1352 24.5351 18.9884 24.5251 18.8411C24.5151 18.6939 24.4608 18.5531 24.3692 18.4373C23.8965 17.81 22.9942 16.5381 22.5 15.365C21.993 14.1533 21.92 12.2713 21.9157 11.3604C21.9157 11.0123 21.8039 10.6729 21.5891 10.3979L17.7864 5.56816C17.7657 5.54311 17.7442 5.51874 17.7219 5.49512C17.9721 6.24437 18.002 7.04972 17.8079 7.81543C17.6238 8.43369 17.3701 9.02904 17.0516 9.59004L16.7422 10.2002C16.2462 11.1446 15.9618 12.1856 15.9086 13.251C15.8571 14.5143 16.1149 16.1041 16.9614 18.2268Z" fill="url(#paint2_radial_4306_2357)"/>
<path d="M16.9609 18.2263C16.1145 16.1037 15.8523 14.5138 15.9082 13.2462C15.9613 12.1809 16.2458 11.1398 16.7418 10.1955C16.8406 9.98921 16.948 9.78726 17.0512 9.5896C17.3563 8.99234 17.6527 8.42945 17.8074 7.8107C18.0015 7.04499 17.9717 6.23964 17.7215 5.49038C17.4608 5.2031 17.0968 5.03092 16.7094 5.01159C16.322 4.99226 15.9427 5.12735 15.6547 5.38726L11.1258 9.4607C10.8732 9.6883 10.7076 9.99667 10.6574 10.333L10.1074 13.9853L10.0859 14.0841C11.1086 14.7502 12.4062 15.8201 13.098 17.5216C13.241 17.8662 13.3532 18.2229 13.4332 18.5873C14.6363 18.2951 15.8266 18.1146 16.9609 18.2306V18.2263Z" fill="url(#paint3_radial_4306_2357)"/>
<path d="M19.3309 26.9577C20.3063 27.2241 21.2902 26.4421 21.4234 25.4366C21.5343 24.4788 21.8167 23.5487 22.257 22.6909C21.157 20.3276 19.8293 19.0987 18.3727 18.553C16.8258 17.9773 15.1414 18.1663 13.4313 18.5831C13.8137 20.319 13.5859 22.5921 12.125 25.5526C12.2969 25.63 12.473 25.6815 12.6621 25.6944C12.6621 25.6944 13.7105 25.7804 14.9652 25.8706C16.2113 25.9565 18.0762 26.6054 19.3309 26.9534V26.9577Z" fill="url(#paint4_radial_4306_2357)"/>
<path fill-rule="evenodd" clip-rule="evenodd" d="M15.9135 13.165C15.8577 14.4197 16.0166 15.8635 16.8631 17.9818L16.5967 17.9604C15.8362 15.7475 15.6729 14.6088 15.7288 13.3369C15.794 12.2545 16.0931 11.199 16.6053 10.2432C16.7084 10.0326 16.9491 9.6373 17.0565 9.43535C17.3616 8.84668 17.5678 8.53301 17.744 7.9916C17.9889 7.23965 17.9373 6.87871 17.9073 6.52637C18.1049 7.81113 17.3616 8.93262 16.803 10.067C16.2893 11.023 15.986 12.0779 15.9135 13.1607V13.165Z" fill="url(#paint5_radial_4306_2357)"/>
<path fill-rule="evenodd" clip-rule="evenodd" d="M13.3469 17.608C13.45 17.84 13.5445 18.0291 13.6047 18.317L13.377 18.3643C13.2867 18.0291 13.2137 17.7885 13.0848 17.5049C12.3199 15.7002 11.0953 14.7721 10.0898 14.0889C11.3016 14.742 12.5477 15.7646 13.3426 17.608H13.3469Z" fill="url(#paint6_radial_4306_2357)"/>
<path fill-rule="evenodd" clip-rule="evenodd" d="M13.6156 18.54C14.0367 20.5166 13.5641 23.0174 12.1719 25.4537C13.3363 23.0389 13.8992 20.7229 13.4309 18.5787L13.6156 18.54Z" fill="url(#paint7_radial_4306_2357)"/>
<path fill-rule="evenodd" clip-rule="evenodd" d="M18.423 18.364C20.7047 19.2191 21.5855 21.0968 22.243 22.6609C21.4266 21.0237 20.3008 19.2105 18.3414 18.5359C16.8461 18.0288 15.5871 18.089 13.4301 18.5788L13.3828 18.364C15.6688 17.8441 16.8633 17.7839 18.423 18.364Z" fill="url(#paint8_radial_4306_2357)"/>
</g>
</g>
<defs>
<filter id="filter0_di_4306_2357" x="1.2" y="5" width="29.6" height="30.8103" filterUnits="userSpaceOnUse" color-interpolation-filters="sRGB">
<feFlood flood-opacity="0" result="BackgroundImageFix"/>
<feColorMatrix in="SourceAlpha" type="matrix" values="0 0 0 0 0 0 0 0 0 0 0 0 0 0 0 0 0 0 127 0" result="hardAlpha"/>
<feOffset dy="5"/>
<feGaussianBlur stdDeviation="1.9"/>
<feComposite in2="hardAlpha" operator="out"/>
<feColorMatrix type="matrix" values="0 0 0 0 0 0 0 0 0 0 0 0 0 0 0 0 0 0 0.45 0"/>
<feBlend mode="normal" in2="BackgroundImageFix" result="effect1_dropShadow_4306_2357"/>
<feBlend mode="normal" in="SourceGraphic" in2="effect1_dropShadow_4306_2357" result="shape"/>
<feColorMatrix in="SourceAlpha" type="matrix" values="0 0 0 0 0 0 0 0 0 0 0 0 0 0 0 0 0 0 127 0" result="hardAlpha"/>
<feOffset dy="1"/>
<feGaussianBlur stdDeviation="1.65"/>
<feComposite in2="hardAlpha" operator="arithmetic" k2="-1" k3="1"/>
<feColorMatrix type="matrix" values="0 0 0 0 0 0 0 0 0 0 0 0 0 0 0 0 0 0 0.25 0"/>
<feBlend mode="normal" in2="shape" result="effect2_innerShadow_4306_2357"/>
</filter>
<linearGradient id="paint0_linear_4306_2357" x1="16" y1="0" x2="16" y2="32" gradientUnits="userSpaceOnUse">
<stop stop-color="#D9D9D9" stop-opacity="0"/>
<stop offset="1" stop-opacity="0.12"/>
</linearGradient>
<radialGradient id="paint1_radial_4306_2357" cx="0" cy="0" r="1" gradientUnits="userSpaceOnUse" gradientTransform="translate(11.9336 25.1961) rotate(-104.693) scale(9.99483 6.65959)">
<stop stop-color="white" stop-opacity="0.4"/>
<stop offset="1" stop-opacity="0.1"/>
</radialGradient>
<radialGradient id="paint2_radial_4306_2357" cx="0" cy="0" r="1" gradientUnits="userSpaceOnUse" gradientTransform="translate(20.4676 21.0799) rotate(-82.4846) scale(16.4263 12.1358)">
<stop stop-color="white" stop-opacity="0.6"/>
<stop offset="1" stop-color="white" stop-opacity="0.1"/>
</radialGradient>
<radialGradient id="paint3_radial_4306_2357" cx="0" cy="0" r="1" gradientUnits="userSpaceOnUse" gradientTransform="translate(12.5352 18.1919) rotate(-77.7949) scale(14.024 9.58241)">
<stop stop-color="white" stop-opacity="0.8"/>
<stop offset="1" stop-color="white" stop-opacity="0.4"/>
</radialGradient>
<radialGradient id="paint4_radial_4306_2357" cx="0" cy="0" r="1" gradientUnits="userSpaceOnUse" gradientTransform="translate(19.4039 27.0093) rotate(-120.496) scale(8.12837 9.34404)">
<stop stop-color="white" stop-opacity="0.3"/>
<stop offset="1" stop-opacity="0.3"/>
</radialGradient>
<radialGradient id="paint5_radial_4306_2357" cx="0" cy="0" r="1" gradientUnits="userSpaceOnUse" gradientTransform="translate(18.3155 10.5096) rotate(102.236) scale(7.29862 4.92174)">
<stop stop-color="white" stop-opacity="0"/>
<stop offset="1" stop-color="white" stop-opacity="0.2"/>
</radialGradient>
<radialGradient id="paint6_radial_4306_2357" cx="0" cy="0" r="1" gradientUnits="userSpaceOnUse" gradientTransform="translate(9.76758 14.4627) rotate(45.3237) scale(5.37796 11.4549)">
<stop stop-color="white" stop-opacity="0.2"/>
<stop offset="1" stop-color="white" stop-opacity="0.4"/>
</radialGradient>
<radialGradient id="paint7_radial_4306_2357" cx="0" cy="0" r="1" gradientUnits="userSpaceOnUse" gradientTransform="translate(14.2344 17.2037) rotate(86.0397) scale(5.59931 11.8904)">
<stop stop-color="white" stop-opacity="0.2"/>
<stop offset="1" stop-color="white" stop-opacity="0.3"/>
</radialGradient>
<radialGradient id="paint8_radial_4306_2357" cx="0" cy="0" r="1" gradientUnits="userSpaceOnUse" gradientTransform="translate(22.1828 22.1538) rotate(-152.289) scale(9.61003 30.233)">
<stop stop-color="white" stop-opacity="0.2"/>
<stop offset="0.5" stop-color="white" stop-opacity="0.2"/>
<stop offset="1" stop-color="white" stop-opacity="0.3"/>
</radialGradient>
<clipPath id="clip0_4306_2357">
<rect width="32" height="32" rx="8" fill="white"/>
</clipPath>
</defs>
</svg>
