<svg width="32" height="32" viewBox="0 0 32 32" fill="none" xmlns="http://www.w3.org/2000/svg">
<g clip-path="url(#clip0_3610_2148)">
<rect width="32" height="32" rx="8" fill="#082D15"/>
<rect width="32" height="32" rx="8" fill="url(#paint0_linear_3610_2148)"/>
<g opacity="0.3" filter="url(#filter0_f_3610_2148)">
<path d="M15.9999 6C10.4772 6 6 10.4772 6 16.0001C6 21.5231 10.4772 26 15.9999 26C21.5232 26 26 21.5231 26 16.0001C26 10.4776 21.5234 6 15.9999 6ZM20.5858 20.423C20.4067 20.7167 20.0222 20.8099 19.7285 20.6295C17.3806 19.1954 14.4249 18.8706 10.944 19.6659C10.6086 19.7423 10.2742 19.5321 10.1978 19.1966C10.121 18.861 10.3304 18.5266 10.6666 18.4502C14.4759 17.5799 17.7434 17.9546 20.3793 19.5656C20.673 19.7459 20.7662 20.1292 20.5858 20.423ZM21.8098 17.7001C21.5841 18.0669 21.1041 18.1827 20.7375 17.957C18.0495 16.3048 13.9521 15.8263 10.7728 16.7914C10.3605 16.916 9.92496 16.6836 9.79982 16.272C9.67563 15.8596 9.90812 15.425 10.3197 15.2996C13.9514 14.1976 18.4663 14.7314 21.5531 16.6283C21.9197 16.854 22.0355 17.3339 21.8098 17.7001ZM21.9149 14.8647C18.692 12.9503 13.3745 12.7743 10.2974 13.7082C9.80328 13.8581 9.28073 13.5792 9.13099 13.085C8.98125 12.5906 9.25995 12.0684 9.75444 11.9182C13.2868 10.8459 19.1589 11.0531 22.8695 13.2559C23.3149 13.5197 23.4606 14.0937 23.1967 14.5376C22.934 14.982 22.3579 15.1286 21.9149 14.8647Z" fill="#1ED760"/>
</g>
<g filter="url(#filter1_di_3610_2148)">
<path d="M15.9999 6C10.4772 6 6 10.4772 6 16.0001C6 21.5231 10.4772 26 15.9999 26C21.5232 26 26 21.5231 26 16.0001C26 10.4776 21.5234 6 15.9999 6ZM20.5858 20.423C20.4067 20.7167 20.0222 20.8099 19.7285 20.6295C17.3806 19.1954 14.4249 18.8706 10.944 19.6659C10.6086 19.7423 10.2742 19.5321 10.1978 19.1966C10.121 18.861 10.3304 18.5266 10.6666 18.4502C14.4759 17.5799 17.7434 17.9546 20.3793 19.5656C20.673 19.7459 20.7662 20.1292 20.5858 20.423ZM21.8098 17.7001C21.5841 18.0669 21.1041 18.1827 20.7375 17.957C18.0495 16.3048 13.9521 15.8263 10.7728 16.7914C10.3605 16.916 9.92496 16.6836 9.79982 16.272C9.67563 15.8596 9.90812 15.425 10.3197 15.2996C13.9514 14.1976 18.4663 14.7314 21.5531 16.6283C21.9197 16.854 22.0355 17.3339 21.8098 17.7001ZM21.9149 14.8647C18.692 12.9503 13.3745 12.7743 10.2974 13.7082C9.80328 13.8581 9.28073 13.5792 9.13099 13.085C8.98125 12.5906 9.25995 12.0684 9.75444 11.9182C13.2868 10.8459 19.1589 11.0531 22.8695 13.2559C23.3149 13.5197 23.4606 14.0937 23.1967 14.5376C22.934 14.982 22.3579 15.1286 21.9149 14.8647Z" fill="#1ED760"/>
</g>
</g>
<defs>
<filter id="filter0_f_3610_2148" x="-7.5" y="-7.5" width="47" height="47" filterUnits="userSpaceOnUse" color-interpolation-filters="sRGB">
<feFlood flood-opacity="0" result="BackgroundImageFix"/>
<feBlend mode="normal" in="SourceGraphic" in2="BackgroundImageFix" result="shape"/>
<feGaussianBlur stdDeviation="6.75" result="effect1_foregroundBlur_3610_2148"/>
</filter>
<filter id="filter1_di_3610_2148" x="2.2" y="6" width="27.6" height="28.8" filterUnits="userSpaceOnUse" color-interpolation-filters="sRGB">
<feFlood flood-opacity="0" result="BackgroundImageFix"/>
<feColorMatrix in="SourceAlpha" type="matrix" values="0 0 0 0 0 0 0 0 0 0 0 0 0 0 0 0 0 0 127 0" result="hardAlpha"/>
<feOffset dy="5"/>
<feGaussianBlur stdDeviation="1.9"/>
<feComposite in2="hardAlpha" operator="out"/>
<feColorMatrix type="matrix" values="0 0 0 0 0 0 0 0 0 0 0 0 0 0 0 0 0 0 0.45 0"/>
<feBlend mode="normal" in2="BackgroundImageFix" result="effect1_dropShadow_3610_2148"/>
<feBlend mode="normal" in="SourceGraphic" in2="effect1_dropShadow_3610_2148" result="shape"/>
<feColorMatrix in="SourceAlpha" type="matrix" values="0 0 0 0 0 0 0 0 0 0 0 0 0 0 0 0 0 0 127 0" result="hardAlpha"/>
<feOffset dy="1"/>
<feGaussianBlur stdDeviation="1.65"/>
<feComposite in2="hardAlpha" operator="arithmetic" k2="-1" k3="1"/>
<feColorMatrix type="matrix" values="0 0 0 0 0 0 0 0 0 0 0 0 0 0 0 0 0 0 0.25 0"/>
<feBlend mode="normal" in2="shape" result="effect2_innerShadow_3610_2148"/>
</filter>
<linearGradient id="paint0_linear_3610_2148" x1="16" y1="0" x2="16" y2="32" gradientUnits="userSpaceOnUse">
<stop stop-color="#D9D9D9" stop-opacity="0"/>
<stop offset="1" stop-opacity="0.12"/>
</linearGradient>
<clipPath id="clip0_3610_2148">
<rect width="32" height="32" rx="8" fill="white"/>
</clipPath>
</defs>
</svg>
