<svg width="32" height="32" viewBox="0 0 32 32" fill="none" xmlns="http://www.w3.org/2000/svg">
<g clip-path="url(#clip0_3667_1924)">
<rect width="32" height="32" rx="8" fill="#E0FAFF"/>
<rect width="32" height="32" rx="8" fill="url(#paint0_linear_3667_1924)"/>
<g opacity="0.7" clip-path="url(#clip1_3667_1924)" filter="url(#filter0_f_3667_1924)">
<path fill-rule="evenodd" clip-rule="evenodd" d="M20.4887 6.00176C20.4644 6.00118 20.44 6.00059 20.4156 6H15.5376C12.3444 6.16322 11.0022 7.92088 10.6421 8.85695C9.24273 12.831 8.37201 17.9783 7.74345 21.6939C7.73119 21.7664 7.71902 21.8383 7.70695 21.9096L7.50274 23.6756C7.49062 23.9545 7.51812 24.2564 7.59741 24.5496C7.98963 25.627 9.17222 26.5346 11.7776 25.6304L11.7779 25.6319C14.239 24.6149 17.1462 23.3513 20.1526 21.9336C21.8642 20.9958 24.3714 18.84 24.5 16.1168C24.4768 14.097 24.4054 11.9795 24.2606 9.91871L24.2598 9.92027L24.2597 9.90602C24.2478 9.73675 24.2354 9.54089 24.2225 9.33699C24.1977 8.94542 24.171 8.52422 24.1423 8.20488C24.0998 7.98349 24.0454 7.78335 23.9782 7.60252C23.5606 6.71969 22.7425 6.29397 21.8795 6.0904C21.4859 6.02574 21.0024 6.01411 20.4887 6.00176ZM20.3025 10.1119C20.3025 9.88348 20.107 9.6983 19.866 9.6983C17.0933 9.6983 14.8457 11.8278 14.8457 14.4548V16.0468C14.8457 17.4588 13.6376 18.6034 12.1473 18.6034C11.8989 18.6034 11.6975 18.7942 11.6975 19.0295V20.3309C11.6975 20.5593 11.893 20.7445 12.1341 20.7445C14.9067 20.7445 17.1544 18.615 17.1544 15.9881V14.3961C17.1544 12.9841 18.3624 11.8394 19.8527 11.8394C20.1011 11.8394 20.3025 11.6486 20.3025 11.4133V10.1119Z" fill="#178A9E"/>
<path d="M19.8657 9.69824C20.1068 9.69824 20.3022 9.88342 20.3022 10.1118V11.4133C20.3022 11.6486 20.1008 11.8394 19.8524 11.8394C18.3622 11.8394 17.1541 12.984 17.1541 14.396V16.0853C17.1541 18.7123 14.9064 20.8418 12.1338 20.8418C11.8927 20.8418 11.6973 20.6566 11.6973 20.4282V19.1268C11.6973 18.8914 11.8986 18.7007 12.147 18.7007C13.6373 18.7007 14.8454 17.556 14.8454 16.1441V14.4547C14.8454 11.8278 17.093 9.69824 19.8657 9.69824Z" fill="white"/>
</g>
<g filter="url(#filter1_di_3667_1924)">
<path fill-rule="evenodd" clip-rule="evenodd" d="M20.4887 6.00176C20.4644 6.00118 20.44 6.00059 20.4156 6H15.5376C12.3444 6.16322 11.0022 7.92088 10.6421 8.85695C9.24273 12.831 8.37201 17.9783 7.74345 21.6939C7.73119 21.7664 7.71902 21.8383 7.70695 21.9096L7.50274 23.6756C7.49062 23.9545 7.51812 24.2564 7.59741 24.5496C7.98963 25.627 9.17222 26.5346 11.7776 25.6304L11.7779 25.6319C14.239 24.6149 17.1462 23.3513 20.1526 21.9336C21.8642 20.9958 24.3714 18.84 24.5 16.1168C24.4768 14.097 24.4054 11.9795 24.2606 9.91871L24.2598 9.92027L24.2597 9.90602C24.2478 9.73675 24.2354 9.54089 24.2225 9.33699C24.1977 8.94542 24.171 8.52422 24.1423 8.20488C24.0998 7.98349 24.0454 7.78335 23.9782 7.60252C23.5606 6.71969 22.7425 6.29397 21.8795 6.0904C21.4859 6.02574 21.0024 6.01411 20.4887 6.00176ZM20.3025 10.1119C20.3025 9.88348 20.107 9.6983 19.866 9.6983C17.0933 9.6983 14.8457 11.8278 14.8457 14.4548V16.0468C14.8457 17.4588 13.6376 18.6034 12.1473 18.6034C11.8989 18.6034 11.6975 18.7942 11.6975 19.0295V20.3309C11.6975 20.5593 11.893 20.7445 12.1341 20.7445C14.9067 20.7445 17.1544 18.615 17.1544 15.9881V14.3961C17.1544 12.9841 18.3624 11.8394 19.8527 11.8394C20.1011 11.8394 20.3025 11.6486 20.3025 11.4133V10.1119Z" fill="#178A9E"/>
<path d="M19.8657 9.69824C20.1068 9.69824 20.3022 9.88342 20.3022 10.1118V11.4133C20.3022 11.6486 20.1008 11.8394 19.8524 11.8394C18.3622 11.8394 17.1541 12.984 17.1541 14.396V16.0853C17.1541 18.7123 14.9064 20.8418 12.1338 20.8418C11.8927 20.8418 11.6973 20.6566 11.6973 20.4282V19.1268C11.6973 18.8914 11.8986 18.7007 12.147 18.7007C13.6373 18.7007 14.8454 17.556 14.8454 16.1441V14.4547C14.8454 11.8278 17.093 9.69824 19.8657 9.69824Z" fill="white"/>
</g>
</g>
<defs>
<filter id="filter0_f_3667_1924" x="-1.4" y="-2.9" width="34.8" height="37.8" filterUnits="userSpaceOnUse" color-interpolation-filters="sRGB">
<feFlood flood-opacity="0" result="BackgroundImageFix"/>
<feBlend mode="normal" in="SourceGraphic" in2="BackgroundImageFix" result="shape"/>
<feGaussianBlur stdDeviation="4.45" result="effect1_foregroundBlur_3667_1924"/>
</filter>
<filter id="filter1_di_3667_1924" x="2.7" y="4.2" width="26.6" height="29.6" filterUnits="userSpaceOnUse" color-interpolation-filters="sRGB">
<feFlood flood-opacity="0" result="BackgroundImageFix"/>
<feColorMatrix in="SourceAlpha" type="matrix" values="0 0 0 0 0 0 0 0 0 0 0 0 0 0 0 0 0 0 127 0" result="hardAlpha"/>
<feOffset dy="3"/>
<feGaussianBlur stdDeviation="2.4"/>
<feComposite in2="hardAlpha" operator="out"/>
<feColorMatrix type="matrix" values="0 0 0 0 0 0 0 0 0 0 0 0 0 0 0 0 0 0 0.25 0"/>
<feBlend mode="normal" in2="BackgroundImageFix" result="effect1_dropShadow_3667_1924"/>
<feBlend mode="normal" in="SourceGraphic" in2="effect1_dropShadow_3667_1924" result="shape"/>
<feColorMatrix in="SourceAlpha" type="matrix" values="0 0 0 0 0 0 0 0 0 0 0 0 0 0 0 0 0 0 127 0" result="hardAlpha"/>
<feOffset dx="-2" dy="2"/>
<feGaussianBlur stdDeviation="1.95"/>
<feComposite in2="hardAlpha" operator="arithmetic" k2="-1" k3="1"/>
<feColorMatrix type="matrix" values="0 0 0 0 0 0 0 0 0 0 0 0 0 0 0 0 0 0 0.12 0"/>
<feBlend mode="normal" in2="shape" result="effect2_innerShadow_3667_1924"/>
</filter>
<linearGradient id="paint0_linear_3667_1924" x1="16" y1="0" x2="16" y2="32" gradientUnits="userSpaceOnUse">
<stop stop-opacity="0"/>
<stop offset="1" stop-opacity="0.12"/>
</linearGradient>
<clipPath id="clip0_3667_1924">
<rect width="32" height="32" rx="8" fill="white"/>
</clipPath>
<clipPath id="clip1_3667_1924">
<rect width="17" height="20" fill="white" transform="translate(7.5 6)"/>
</clipPath>
</defs>
</svg>
