<svg width="32" height="32" viewBox="0 0 32 32" fill="none" xmlns="http://www.w3.org/2000/svg">
<g clip-path="url(#clip0_3611_1861)">
<rect width="32" height="32" rx="8" fill="#161627"/>
<rect width="32" height="32" rx="8" fill="url(#paint0_linear_3611_1861)"/>
<g opacity="0.8" clip-path="url(#clip1_3611_1861)" filter="url(#filter0_f_3611_1861)">
<path fill-rule="evenodd" clip-rule="evenodd" d="M20.733 8V21.7417L8.0332 19.9596L20.733 23.9999L24.9667 22.3359V9.91202L24.9681 9.91142L24.9667 9.90877V9.66406L20.733 8Z" fill="#007ACC"/>
<path fill-rule="evenodd" clip-rule="evenodd" d="M16.2887 10.3408L12.3989 13.9736L10.057 12.3073L9.0918 12.6119L11.4744 14.8371L9.0918 17.0622L10.057 17.3669L12.3989 15.7004H12.399L16.2886 19.333L18.6183 18.3978V11.276L16.2887 10.3408ZM16.2886 12.9329V16.7408L13.6125 14.8369L16.2886 12.9329Z" fill="#007ACC"/>
</g>
<g filter="url(#filter1_d_3611_1861)">
<path fill-rule="evenodd" clip-rule="evenodd" d="M20.733 8V21.7417L8.0332 19.9596L20.733 23.9999L24.9667 22.3359V9.91202L24.9681 9.91142L24.9667 9.90877V9.66406L20.733 8Z" fill="#007ACC"/>
<path fill-rule="evenodd" clip-rule="evenodd" d="M16.2887 10.3408L12.3989 13.9736L10.057 12.3073L9.0918 12.6119L11.4744 14.8371L9.0918 17.0622L10.057 17.3669L12.3989 15.7004H12.399L16.2886 19.333L18.6183 18.3978V11.276L16.2887 10.3408ZM16.2886 12.9329V16.7408L13.6125 14.8369L16.2886 12.9329Z" fill="#007ACC"/>
</g>
</g>
<defs>
<filter id="filter0_f_3611_1861" x="-4" y="-4" width="41" height="40" filterUnits="userSpaceOnUse" color-interpolation-filters="sRGB">
<feFlood flood-opacity="0" result="BackgroundImageFix"/>
<feBlend mode="normal" in="SourceGraphic" in2="BackgroundImageFix" result="shape"/>
<feGaussianBlur stdDeviation="6" result="effect1_foregroundBlur_3611_1861"/>
</filter>
<filter id="filter1_d_3611_1861" x="4" y="7" width="25" height="24" filterUnits="userSpaceOnUse" color-interpolation-filters="sRGB">
<feFlood flood-opacity="0" result="BackgroundImageFix"/>
<feColorMatrix in="SourceAlpha" type="matrix" values="0 0 0 0 0 0 0 0 0 0 0 0 0 0 0 0 0 0 127 0" result="hardAlpha"/>
<feOffset dy="3"/>
<feGaussianBlur stdDeviation="2"/>
<feComposite in2="hardAlpha" operator="out"/>
<feColorMatrix type="matrix" values="0 0 0 0 0 0 0 0 0 0 0 0 0 0 0 0 0 0 0.45 0"/>
<feBlend mode="normal" in2="BackgroundImageFix" result="effect1_dropShadow_3611_1861"/>
<feBlend mode="normal" in="SourceGraphic" in2="effect1_dropShadow_3611_1861" result="shape"/>
</filter>
<linearGradient id="paint0_linear_3611_1861" x1="16" y1="0" x2="16" y2="32" gradientUnits="userSpaceOnUse">
<stop stop-color="#D9D9D9" stop-opacity="0"/>
<stop offset="1" stop-opacity="0.12"/>
</linearGradient>
<clipPath id="clip0_3611_1861">
<rect width="32" height="32" rx="8" fill="white"/>
</clipPath>
<clipPath id="clip1_3611_1861">
<rect width="17" height="16" fill="white" transform="translate(8 8)"/>
</clipPath>
</defs>
</svg>
