<svg width="32" height="32" viewBox="0 0 32 32" fill="none" xmlns="http://www.w3.org/2000/svg">
<rect width="32" height="32" rx="8" fill="#3139FB"/>
<rect width="32" height="32" rx="8" fill="url(#paint0_linear_3609_1863)"/>
<g opacity="0.4" clip-path="url(#clip0_3609_1863)" filter="url(#filter0_f_3609_1863)">
<path d="M19.9811 10.5566L18.8952 8.21243C18.585 7.54411 18.1006 6.9816 17.498 6.59006C16.8955 6.19852 16.1994 5.99398 15.4905 6.00013C14.7817 6.00629 14.089 6.22288 13.4927 6.62483C12.8964 7.02677 12.4209 7.59762 12.1213 8.27123L10.6236 11.6422C10.0736 11.304 9.45036 11.1185 8.81289 11.1032C8.17543 11.088 7.54479 11.2434 6.98061 11.5549C5.18944 12.5361 4.56122 14.8594 5.30953 16.6637C5.73721 17.7013 6.36146 18.6652 7.12619 19.5192L6.73193 20.4071C6.47792 20.978 6.35865 21.6046 6.38419 22.234C6.40972 22.8634 6.57931 23.4772 6.87865 24.0234C7.20339 24.6221 7.67443 25.1192 8.24327 25.4636C8.94259 25.892 9.75549 26.0712 10.5601 25.9744L10.5715 25.9726L10.5817 25.9714C11.2235 25.8856 11.8338 25.6292 12.3545 25.2265C12.8752 24.8238 13.289 24.2882 13.5568 23.6706L13.7539 23.227C14.3283 23.3238 14.9095 23.3719 15.4929 23.3701H15.5088C16.1713 23.3617 16.8317 23.2902 17.4818 23.1563L17.7282 23.6878L17.7294 23.6902C18.04 24.3568 18.5238 24.9179 19.125 25.309C19.7263 25.7001 20.4206 25.9055 21.1282 25.9013H21.1367C21.9858 25.8922 22.8069 25.5817 23.4661 25.0204C24.1252 24.4591 24.5835 23.6801 24.766 22.8106L24.7689 22.7958L24.7717 22.7815C24.9406 21.9096 24.8261 21.0034 24.4466 20.2076L24.0041 19.2478C25.4526 17.589 26.5153 15.5169 26.9328 13.2226C27.0261 12.7139 27.0222 12.1909 26.9213 11.6838C26.8203 11.1767 26.6244 10.6956 26.3448 10.2685C25.9975 9.73528 25.5304 9.29976 24.9847 9.00034C24.439 8.70093 23.8315 8.5468 23.2156 8.55155H23.2077C22.5493 8.5598 21.9045 8.74946 21.3381 9.10148C20.7716 9.45351 20.3034 9.95553 19.9805 10.5572L19.9811 10.5566ZM21.8385 10.9996C22.2082 10.6131 22.7072 10.3931 23.2292 10.3867C23.5582 10.3842 23.8828 10.4667 24.1742 10.6268C24.4657 10.787 24.715 11.0198 24.9003 11.3049C25.1543 11.6919 25.2757 12.1577 25.2447 12.6263L21.8385 10.999V10.9996Z" fill="white"/>
<path d="M11.0387 15.0631L10.1629 17.0378L9.24805 19.0987C9.59207 19.3981 9.95423 19.6739 10.3323 19.9242C11.0925 20.4259 11.9117 20.822 12.7692 21.1025L13.6529 19.1129L14.4828 17.2421C13.1465 16.9493 11.8091 16.1048 11.0387 15.0631Z" fill="#210784"/>
<path d="M21.8769 18.8648L20.0245 14.8643C19.6185 15.3893 19.1428 15.8505 18.6118 16.2338C18.0179 16.6692 17.3542 16.9893 16.6523 17.1787L18.4226 20.9916C19.2887 20.6741 20.1103 20.2361 20.8652 19.6892C21.218 19.436 21.5558 19.1607 21.8769 18.8648Z" fill="#26069C"/>
<path d="M10.3301 19.9222C9.95194 19.6721 9.58975 19.3963 9.2459 19.0967L8.32029 21.1825C8.18453 21.4872 8.12086 21.8217 8.13466 22.1577C8.14847 22.4938 8.23935 22.8213 8.3996 23.1127C8.57124 23.4304 8.82162 23.6947 9.12355 23.8758C9.49685 24.1057 9.93133 24.2025 10.3613 24.1502C10.7081 24.1038 11.0378 23.965 11.3188 23.7469C11.5999 23.5289 11.8229 23.239 11.9667 22.9048L12.7671 21.1011C11.9095 20.8204 11.0903 20.4241 10.3301 19.9222Z" fill="#2404AA"/>
<path d="M24.9007 11.3059C24.7154 11.0208 24.4661 10.7879 24.1746 10.6278C23.8832 10.4677 23.5586 10.3852 23.2296 10.3878C22.7672 10.3935 22.3209 10.5668 21.9664 10.8782C21.612 11.1897 21.3712 11.6201 21.2849 12.0964C21.0888 13.1136 20.6569 14.0644 20.0273 14.8652L21.8797 18.8652C23.5564 17.3192 24.788 15.2186 25.2134 12.878C25.2633 12.6073 25.2614 12.3289 25.2077 12.059C25.154 11.7891 25.0496 11.5331 24.9007 11.3059Z" fill="#FF9999"/>
<path d="M22.8769 21.0203L21.881 18.862L20.0287 14.8621L17.321 9.01566C17.1558 8.65905 16.8976 8.35884 16.5762 8.14988C16.2549 7.94091 15.8837 7.83174 15.5056 7.83503C15.1275 7.83833 14.758 7.95395 14.44 8.16849C14.1221 8.38303 13.8686 8.68769 13.7091 9.04713L11.0371 15.0604C11.8069 16.1021 13.1478 16.9514 14.4807 17.2383L15.3502 15.2796C15.3688 15.2377 15.3984 15.2021 15.4355 15.1771C15.4726 15.1521 15.5157 15.1386 15.5599 15.1383C15.604 15.1379 15.6473 15.1506 15.6848 15.175C15.7223 15.1994 15.7524 15.2344 15.7717 15.276L16.6565 17.1789L18.4267 20.9918L19.303 22.8851C19.469 23.2413 19.7275 23.5412 20.0487 23.7503C20.37 23.9594 20.741 24.0691 21.1191 24.067C21.5724 24.0623 22.0108 23.8965 22.3627 23.5969C22.7145 23.2972 22.9591 22.8813 23.0565 22.4171C23.1482 21.9436 23.085 21.4514 22.8769 21.0203Z" fill="#FF5060"/>
<path d="M16.6554 17.1775C16.2621 17.282 15.8584 17.337 15.4528 17.3414C15.1269 17.3418 14.8018 17.3064 14.483 17.2357C13.1501 16.9453 11.8121 16.1001 11.0428 15.059C10.8593 14.8156 10.7059 14.5488 10.5862 14.265C10.4835 13.9908 10.3267 13.7424 10.1261 13.5361C9.92555 13.3298 9.68568 13.1703 9.42221 13.0679C9.15874 12.9655 8.87763 12.9226 8.59726 12.942C8.31689 12.9614 8.04359 13.0427 7.79524 13.1805C6.87983 13.6794 6.50369 14.9396 6.91721 15.9332C7.39531 17.0943 8.20423 18.1853 9.25107 19.0976C9.59548 19.3975 9.95745 19.6737 10.3359 19.9231C11.0961 20.425 11.9152 20.8213 12.7728 21.102C13.652 21.3912 14.5679 21.5373 15.489 21.5344C16.4883 21.5218 17.4789 21.338 18.4216 20.9904L16.6554 17.1775Z" fill="#0034FE"/>
</g>
<g clip-path="url(#clip1_3609_1863)">
<path d="M19.9811 10.5566L18.8952 8.21243C18.585 7.54411 18.1006 6.9816 17.498 6.59006C16.8955 6.19852 16.1994 5.99398 15.4905 6.00013C14.7817 6.00629 14.089 6.22288 13.4927 6.62483C12.8964 7.02677 12.4209 7.59762 12.1213 8.27123L10.6236 11.6422C10.0736 11.304 9.45036 11.1185 8.81289 11.1032C8.17543 11.088 7.54479 11.2434 6.98061 11.5549C5.18944 12.5361 4.56122 14.8594 5.30953 16.6637C5.73721 17.7013 6.36146 18.6652 7.12619 19.5192L6.73193 20.4071C6.47792 20.978 6.35865 21.6046 6.38419 22.234C6.40972 22.8634 6.57931 23.4772 6.87865 24.0234C7.20339 24.6221 7.67443 25.1192 8.24327 25.4636C8.94259 25.892 9.75549 26.0712 10.5601 25.9744L10.5715 25.9726L10.5817 25.9714C11.2235 25.8856 11.8338 25.6292 12.3545 25.2265C12.8752 24.8238 13.289 24.2882 13.5568 23.6706L13.7539 23.227C14.3283 23.3238 14.9095 23.3719 15.4929 23.3701H15.5088C16.1713 23.3617 16.8317 23.2902 17.4818 23.1563L17.7282 23.6878L17.7294 23.6902C18.04 24.3568 18.5238 24.9179 19.125 25.309C19.7263 25.7001 20.4206 25.9055 21.1282 25.9013H21.1367C21.9858 25.8922 22.8069 25.5817 23.4661 25.0204C24.1252 24.4591 24.5835 23.6801 24.766 22.8106L24.7689 22.7958L24.7717 22.7815C24.9406 21.9096 24.8261 21.0034 24.4466 20.2076L24.0041 19.2478C25.4526 17.589 26.5153 15.5169 26.9328 13.2226C27.0261 12.7139 27.0222 12.1909 26.9213 11.6838C26.8203 11.1767 26.6244 10.6956 26.3448 10.2685C25.9975 9.73528 25.5304 9.29976 24.9847 9.00034C24.439 8.70093 23.8315 8.5468 23.2156 8.55155H23.2077C22.5493 8.5598 21.9045 8.74946 21.3381 9.10148C20.7716 9.45351 20.3034 9.95553 19.9805 10.5572L19.9811 10.5566ZM21.8385 10.9996C22.2082 10.6131 22.7072 10.3931 23.2292 10.3867C23.5582 10.3842 23.8828 10.4667 24.1742 10.6268C24.4657 10.787 24.715 11.0198 24.9003 11.3049C25.1543 11.6919 25.2757 12.1577 25.2447 12.6263L21.8385 10.999V10.9996Z" fill="white"/>
<path d="M11.0387 15.0631L10.1629 17.0378L9.24805 19.0987C9.59207 19.3981 9.95423 19.6739 10.3323 19.9242C11.0925 20.4259 11.9117 20.822 12.7692 21.1025L13.6529 19.1129L14.4828 17.2421C13.1465 16.9493 11.8091 16.1048 11.0387 15.0631Z" fill="#210784"/>
<path d="M21.8769 18.8648L20.0245 14.8643C19.6185 15.3893 19.1428 15.8505 18.6118 16.2338C18.0179 16.6692 17.3542 16.9893 16.6523 17.1787L18.4226 20.9916C19.2887 20.6741 20.1103 20.2361 20.8652 19.6892C21.218 19.436 21.5558 19.1607 21.8769 18.8648Z" fill="#26069C"/>
<path d="M10.3301 19.9222C9.95194 19.6721 9.58975 19.3963 9.2459 19.0967L8.32029 21.1825C8.18453 21.4872 8.12086 21.8217 8.13466 22.1577C8.14847 22.4938 8.23935 22.8213 8.3996 23.1127C8.57124 23.4304 8.82162 23.6947 9.12355 23.8758C9.49685 24.1057 9.93133 24.2025 10.3613 24.1502C10.7081 24.1038 11.0378 23.965 11.3188 23.7469C11.5999 23.5289 11.8229 23.239 11.9667 22.9048L12.7671 21.1011C11.9095 20.8204 11.0903 20.4241 10.3301 19.9222Z" fill="#2404AA"/>
<path d="M24.9007 11.3059C24.7154 11.0208 24.4661 10.7879 24.1746 10.6278C23.8832 10.4677 23.5586 10.3852 23.2296 10.3878C22.7672 10.3935 22.3209 10.5668 21.9664 10.8782C21.612 11.1897 21.3712 11.6201 21.2849 12.0964C21.0888 13.1136 20.6569 14.0644 20.0273 14.8652L21.8797 18.8652C23.5564 17.3192 24.788 15.2186 25.2134 12.878C25.2633 12.6073 25.2614 12.3289 25.2077 12.059C25.154 11.7891 25.0496 11.5331 24.9007 11.3059Z" fill="#FF9999"/>
<path d="M22.8769 21.0203L21.881 18.862L20.0287 14.8621L17.321 9.01566C17.1558 8.65905 16.8976 8.35884 16.5762 8.14988C16.2549 7.94091 15.8837 7.83174 15.5056 7.83503C15.1275 7.83833 14.758 7.95395 14.44 8.16849C14.1221 8.38303 13.8686 8.68769 13.7091 9.04713L11.0371 15.0604C11.8069 16.1021 13.1478 16.9514 14.4807 17.2383L15.3502 15.2796C15.3688 15.2377 15.3984 15.2021 15.4355 15.1771C15.4726 15.1521 15.5157 15.1386 15.5599 15.1383C15.604 15.1379 15.6473 15.1506 15.6848 15.175C15.7223 15.1994 15.7524 15.2344 15.7717 15.276L16.6565 17.1789L18.4267 20.9918L19.303 22.8851C19.469 23.2413 19.7275 23.5412 20.0487 23.7503C20.37 23.9594 20.741 24.0691 21.1191 24.067C21.5724 24.0623 22.0108 23.8965 22.3627 23.5969C22.7145 23.2972 22.9591 22.8813 23.0565 22.4171C23.1482 21.9436 23.085 21.4514 22.8769 21.0203Z" fill="#FF5060"/>
<path d="M16.6554 17.1775C16.2621 17.282 15.8584 17.337 15.4528 17.3414C15.1269 17.3418 14.8018 17.3064 14.483 17.2357C13.1501 16.9453 11.8121 16.1001 11.0428 15.059C10.8593 14.8156 10.7059 14.5488 10.5862 14.265C10.4835 13.9908 10.3267 13.7424 10.1261 13.5361C9.92555 13.3298 9.68568 13.1703 9.42221 13.0679C9.15874 12.9655 8.87763 12.9226 8.59726 12.942C8.31689 12.9614 8.04359 13.0427 7.79524 13.1805C6.87983 13.6794 6.50369 14.9396 6.91721 15.9332C7.39531 17.0943 8.20423 18.1853 9.25107 19.0976C9.59548 19.3975 9.95745 19.6737 10.3359 19.9231C11.0961 20.425 11.9152 20.8213 12.7728 21.102C13.652 21.3912 14.5679 21.5373 15.489 21.5344C16.4883 21.5218 17.4789 21.338 18.4216 20.9904L16.6554 17.1775Z" fill="#0034FE"/>
</g>
<defs>
<filter id="filter0_f_3609_1863" x="0.8" y="1.8" width="30.4" height="28.4" filterUnits="userSpaceOnUse" color-interpolation-filters="sRGB">
<feFlood flood-opacity="0" result="BackgroundImageFix"/>
<feBlend mode="normal" in="SourceGraphic" in2="BackgroundImageFix" result="shape"/>
<feGaussianBlur stdDeviation="2.1" result="effect1_foregroundBlur_3609_1863"/>
</filter>
<linearGradient id="paint0_linear_3609_1863" x1="16" y1="0" x2="16" y2="32" gradientUnits="userSpaceOnUse">
<stop stop-color="#D9D9D9" stop-opacity="0"/>
<stop offset="1" stop-opacity="0.12"/>
</linearGradient>
<clipPath id="clip0_3609_1863">
<rect width="22" height="20" fill="white" transform="translate(5 6)"/>
</clipPath>
<clipPath id="clip1_3609_1863">
<rect width="22" height="20" fill="white" transform="translate(5 6)"/>
</clipPath>
</defs>
</svg>
