<svg width="32" height="32" viewBox="0 0 32 32" fill="none" xmlns="http://www.w3.org/2000/svg">
<g clip-path="url(#clip0_3667_1895)">
<rect width="32" height="32" rx="8" fill="#F6F5F4"/>
<rect width="32" height="32" rx="8" fill="url(#paint0_linear_3667_1895)"/>
<g opacity="0.7" clip-path="url(#clip1_3667_1895)" filter="url(#filter0_f_3667_1895)">
<path d="M21.3642 21.6709C21.366 22.3806 21.6147 23.1064 21.6145 23.8161C21.6142 24.5365 21.3649 25.2409 21.3671 25.9613C17.7889 25.9608 14.2107 25.9613 10.6326 25.961C10.6343 25.2528 10.2991 24.5243 10.2988 23.8161C10.2986 23.0943 10.6332 22.3928 10.6346 21.6709C14.2112 21.672 17.7876 21.6712 21.3642 21.6709Z" fill="#3BAB59"/>
<path d="M17.2231 9.83706C17.7201 9.34108 18.5136 9.07976 19.0049 8.57812C21.0407 10.6265 23.0852 12.6669 25.1259 14.711C25.3097 14.9003 25.5339 15.0745 25.6057 15.3416C25.6758 15.5154 25.6543 15.7048 25.6575 15.8875C25.6578 18.8805 25.6572 21.8731 25.658 24.8658C25.7032 25.4564 25.1401 26.008 24.5521 25.9611C23.4901 25.9611 22.4283 25.9614 21.3662 25.9611C21.3619 24.531 21.367 23.1008 21.3633 21.6707C21.3659 20.0984 21.3644 18.5264 21.3639 16.9544C20.0384 15.631 18.7158 14.3046 17.3912 12.9806C16.929 12.5145 16.4598 12.0552 16.002 11.5851C16.253 11.3448 16.9633 10.0962 17.2231 9.83706Z" fill="#4586F7"/>
<path d="M10.6303 16.96C10.6362 18.5299 10.6297 20.1003 10.6337 21.6705C10.6308 23.1006 10.6351 24.5305 10.6317 25.9606C9.51412 25.96 8.39654 25.9609 7.27895 25.96C6.81224 25.9014 6.40129 25.5085 6.34182 25.038C6.33812 23.7761 6.34069 22.5141 6.34099 21.2523C7.08567 20.5146 7.55026 19.5565 8.29238 18.8161C8.97985 18.1257 9.94597 17.6535 10.6303 16.96Z" fill="#FDC00D"/>
<path d="M15.9433 6.00193C16.0357 6.0134 16.1455 5.97702 16.2276 6.0288C16.4507 6.07227 16.6462 6.20125 16.803 6.36223C17.4693 7.03 18.1362 7.69717 18.8031 8.36434C18.87 8.43581 18.948 8.49732 19.0049 8.57793C18.2569 9.34178 17.4947 10.0916 16.7412 10.85C16.4941 11.0942 16.253 11.3447 16.002 11.5849C15.6708 11.8969 15.3574 12.2272 15.0331 12.5464C13.5661 14.0182 12.0939 15.4847 10.6303 16.96C9.94599 17.6536 9.25338 18.3393 8.56584 19.0296C7.8238 19.77 7.08568 20.5147 6.341 21.2524C6.33844 19.6348 6.341 18.0169 6.34048 16.3995C6.34221 16.0942 6.33557 15.7887 6.34614 15.4836C6.34304 15.4218 6.38961 15.3729 6.38674 15.3111C6.42999 15.2385 6.46855 15.163 6.51059 15.0898C6.6164 14.9491 6.74795 14.8313 6.87067 14.7058C9.64659 11.9241 12.4233 9.14306 15.2001 6.36193C15.3137 6.24268 15.4437 6.13431 15.6019 6.08027C15.7129 6.04314 15.8227 5.9891 15.9433 6.00193Z" fill="#EC5043"/>
</g>
<g filter="url(#filter1_di_3667_1895)">
<path d="M21.3642 21.6709C21.366 22.3806 21.6147 23.1064 21.6145 23.8161C21.6142 24.5365 21.3649 25.2409 21.3671 25.9613C17.7889 25.9608 14.2107 25.9613 10.6326 25.961C10.6343 25.2528 10.2991 24.5243 10.2988 23.8161C10.2986 23.0943 10.6332 22.3928 10.6346 21.6709C14.2112 21.672 17.7876 21.6712 21.3642 21.6709Z" fill="#3BAB59"/>
<path d="M17.2231 9.83706C17.7201 9.34108 18.5136 9.07976 19.0049 8.57812C21.0407 10.6265 23.0852 12.6669 25.1259 14.711C25.3097 14.9003 25.5339 15.0745 25.6057 15.3416C25.6758 15.5154 25.6543 15.7048 25.6575 15.8875C25.6578 18.8805 25.6572 21.8731 25.658 24.8658C25.7032 25.4564 25.1401 26.008 24.5521 25.9611C23.4901 25.9611 22.4283 25.9614 21.3662 25.9611C21.3619 24.531 21.367 23.1008 21.3633 21.6707C21.3659 20.0984 21.3644 18.5264 21.3639 16.9544C20.0384 15.631 18.7158 14.3046 17.3912 12.9806C16.929 12.5145 16.4598 12.0552 16.002 11.5851C16.253 11.3448 16.9633 10.0962 17.2231 9.83706Z" fill="#4586F7"/>
<path d="M10.6303 16.96C10.6362 18.5299 10.6297 20.1003 10.6337 21.6705C10.6308 23.1006 10.6351 24.5305 10.6317 25.9606C9.51412 25.96 8.39654 25.9609 7.27895 25.96C6.81224 25.9014 6.40129 25.5085 6.34182 25.038C6.33812 23.7761 6.34069 22.5141 6.34099 21.2523C7.08567 20.5146 7.55026 19.5565 8.29238 18.8161C8.97985 18.1257 9.94597 17.6535 10.6303 16.96Z" fill="#FDC00D"/>
<path d="M15.9433 6.00193C16.0357 6.0134 16.1455 5.97702 16.2276 6.0288C16.4507 6.07227 16.6462 6.20125 16.803 6.36223C17.4693 7.03 18.1362 7.69717 18.8031 8.36434C18.87 8.43581 18.948 8.49732 19.0049 8.57793C18.2569 9.34178 17.4947 10.0916 16.7412 10.85C16.4941 11.0942 16.253 11.3447 16.002 11.5849C15.6708 11.8969 15.3574 12.2272 15.0331 12.5464C13.5661 14.0182 12.0939 15.4847 10.6303 16.96C9.94599 17.6536 9.25338 18.3393 8.56584 19.0296C7.8238 19.77 7.08568 20.5147 6.341 21.2524C6.33844 19.6348 6.341 18.0169 6.34048 16.3995C6.34221 16.0942 6.33557 15.7887 6.34614 15.4836C6.34304 15.4218 6.38961 15.3729 6.38674 15.3111C6.42999 15.2385 6.46855 15.163 6.51059 15.0898C6.6164 14.9491 6.74795 14.8313 6.87067 14.7058C9.64659 11.9241 12.4233 9.14306 15.2001 6.36193C15.3137 6.24268 15.4437 6.13431 15.6019 6.08027C15.7129 6.04314 15.8227 5.9891 15.9433 6.00193Z" fill="#EC5043"/>
</g>
</g>
<defs>
<filter id="filter0_f_3667_1895" x="-2.7" y="-2.7" width="37.4" height="37.4" filterUnits="userSpaceOnUse" color-interpolation-filters="sRGB">
<feFlood flood-opacity="0" result="BackgroundImageFix"/>
<feBlend mode="normal" in="SourceGraphic" in2="BackgroundImageFix" result="shape"/>
<feGaussianBlur stdDeviation="4.35" result="effect1_foregroundBlur_3667_1895"/>
</filter>
<filter id="filter1_di_3667_1895" x="1.9" y="2.9" width="28.2" height="28.2" filterUnits="userSpaceOnUse" color-interpolation-filters="sRGB">
<feFlood flood-opacity="0" result="BackgroundImageFix"/>
<feColorMatrix in="SourceAlpha" type="matrix" values="0 0 0 0 0 0 0 0 0 0 0 0 0 0 0 0 0 0 127 0" result="hardAlpha"/>
<feOffset dy="1"/>
<feGaussianBlur stdDeviation="2.05"/>
<feComposite in2="hardAlpha" operator="out"/>
<feColorMatrix type="matrix" values="0 0 0 0 0 0 0 0 0 0 0 0 0 0 0 0 0 0 0.45 0"/>
<feBlend mode="normal" in2="BackgroundImageFix" result="effect1_dropShadow_3667_1895"/>
<feBlend mode="normal" in="SourceGraphic" in2="effect1_dropShadow_3667_1895" result="shape"/>
<feColorMatrix in="SourceAlpha" type="matrix" values="0 0 0 0 0 0 0 0 0 0 0 0 0 0 0 0 0 0 127 0" result="hardAlpha"/>
<feOffset dy="2"/>
<feGaussianBlur stdDeviation="2.4"/>
<feComposite in2="hardAlpha" operator="arithmetic" k2="-1" k3="1"/>
<feColorMatrix type="matrix" values="0 0 0 0 0 0 0 0 0 0 0 0 0 0 0 0 0 0 0.18 0"/>
<feBlend mode="normal" in2="shape" result="effect2_innerShadow_3667_1895"/>
</filter>
<linearGradient id="paint0_linear_3667_1895" x1="16" y1="0" x2="16" y2="32" gradientUnits="userSpaceOnUse">
<stop stop-opacity="0"/>
<stop offset="1" stop-opacity="0.12"/>
</linearGradient>
<clipPath id="clip0_3667_1895">
<rect width="32" height="32" rx="8" fill="white"/>
</clipPath>
<clipPath id="clip1_3667_1895">
<rect width="20" height="20" fill="white" transform="translate(6 6)"/>
</clipPath>
</defs>
</svg>
