<svg width="32" height="32" viewBox="0 0 32 32" fill="none" xmlns="http://www.w3.org/2000/svg">
<rect width="32" height="32" rx="8" fill="#1C1E21"/>
<rect width="32" height="32" rx="8" fill="url(#paint0_linear_4306_2334)"/>
<g filter="url(#filter0_di_4306_2334)">
<path d="M16 21.9699C15.9998 23.6438 14.6414 25.0002 12.9844 25.0002C11.3445 25 10 23.6568 10 22.0002C10.0001 21.2046 10.3132 20.4416 10.8701 19.8791C11.427 19.3166 12.1822 19.0002 12.9697 19.0002C12.1821 19.0002 11.427 18.6839 10.8701 18.1213C10.3132 17.5587 10 16.7958 10 16.0002C10.0001 15.2046 10.3132 14.4416 10.8701 13.8791C11.427 13.3166 12.1822 13.0002 12.9697 13.0002C12.1821 13.0002 11.427 12.6839 10.8701 12.1213C10.3132 11.5587 10 10.7958 10 10.0002C10.0001 9.20456 10.3132 8.44164 10.8701 7.87909C11.427 7.31656 12.1822 7.00021 12.9697 7.00018H19.0303C19.4229 6.99581 19.8127 7.07018 20.1768 7.21893C20.5409 7.36772 20.8721 7.58837 21.1514 7.86737C21.4306 8.14638 21.6524 8.47876 21.8037 8.84491C21.9549 9.21092 22.0332 9.60358 22.0332 10.0002C22.0332 10.397 21.955 10.7903 21.8037 11.1564C21.6524 11.5225 21.4306 11.855 21.1514 12.134C20.8722 12.4129 20.5407 12.6327 20.1768 12.7814C19.8127 12.9302 19.423 13.0046 19.0303 13.0002C19.4229 12.9958 19.8127 13.0702 20.1768 13.2189C20.5409 13.3677 20.8721 13.5884 21.1514 13.8674C21.4306 14.1464 21.6524 14.4788 21.8037 14.8449C21.9549 15.2109 22.0332 15.6036 22.0332 16.0002C22.0332 16.397 21.955 16.7903 21.8037 17.1564C21.6524 17.5225 21.4306 17.855 21.1514 18.134C20.8722 18.4129 20.5407 18.6327 20.1768 18.7814C19.8127 18.9302 19.423 19.0046 19.0303 19.0002H18.6475C17.9455 19.0001 17.2718 18.7184 16.7754 18.217C16.2792 17.7156 16.0001 17.0354 16 16.3264V21.9699ZM16 15.674C16.0002 14.965 16.279 14.2847 16.7754 13.7834C17.2718 13.282 17.9455 13.0002 18.6475 13.0002H16V15.674Z" fill="white"/>
</g>
<defs>
<filter id="filter0_di_4306_2334" x="6.2" y="5.2" width="19.6312" height="25.6" filterUnits="userSpaceOnUse" color-interpolation-filters="sRGB">
<feFlood flood-opacity="0" result="BackgroundImageFix"/>
<feColorMatrix in="SourceAlpha" type="matrix" values="0 0 0 0 0 0 0 0 0 0 0 0 0 0 0 0 0 0 127 0" result="hardAlpha"/>
<feOffset dy="2"/>
<feGaussianBlur stdDeviation="1.9"/>
<feComposite in2="hardAlpha" operator="out"/>
<feColorMatrix type="matrix" values="0 0 0 0 0 0 0 0 0 0 0 0 0 0 0 0 0 0 0.45 0"/>
<feBlend mode="normal" in2="BackgroundImageFix" result="effect1_dropShadow_4306_2334"/>
<feBlend mode="normal" in="SourceGraphic" in2="effect1_dropShadow_4306_2334" result="shape"/>
<feColorMatrix in="SourceAlpha" type="matrix" values="0 0 0 0 0 0 0 0 0 0 0 0 0 0 0 0 0 0 127 0" result="hardAlpha"/>
<feOffset dy="0.8"/>
<feGaussianBlur stdDeviation="0.5"/>
<feComposite in2="hardAlpha" operator="arithmetic" k2="-1" k3="1"/>
<feColorMatrix type="matrix" values="0 0 0 0 0 0 0 0 0 0 0 0 0 0 0 0 0 0 0.35 0"/>
<feBlend mode="normal" in2="shape" result="effect2_innerShadow_4306_2334"/>
</filter>
<linearGradient id="paint0_linear_4306_2334" x1="16" y1="0" x2="16" y2="32" gradientUnits="userSpaceOnUse">
<stop stop-color="#D9D9D9" stop-opacity="0"/>
<stop offset="1" stop-opacity="0.12"/>
</linearGradient>
</defs>
</svg>
