<svg width="32" height="32" viewBox="0 0 32 32" fill="none" xmlns="http://www.w3.org/2000/svg">
<g clip-path="url(#clip0_4306_2345)">
<rect width="32" height="32" rx="8" fill="#1C1E21"/>
<rect width="32" height="32" rx="8" fill="url(#paint0_linear_4306_2345)"/>
<g filter="url(#filter0_di_4306_2345)">
<path d="M26.5852 15.0201L16.9792 5.41492C16.4265 4.86169 15.5294 4.86169 14.976 5.41492L12.9814 7.40977L15.5114 9.93993C16.0996 9.74133 16.7738 9.87449 17.2424 10.3432C17.7135 10.8149 17.8457 11.4948 17.6421 12.085L20.0806 14.5236C20.6706 14.3203 21.3512 14.4517 21.8223 14.9236C22.4809 15.582 22.4809 16.649 21.8223 17.3076C21.1636 17.9664 20.0967 17.9664 19.4377 17.3076C18.9425 16.812 18.82 16.0843 19.0708 15.4741L16.7966 13.1998L16.7964 19.1846C16.957 19.2641 17.1085 19.3702 17.2423 19.5034C17.9007 20.1618 17.9007 21.2285 17.2423 21.8879C16.5837 22.5463 15.5163 22.5463 14.8584 21.8879C14.1999 21.2285 14.1999 20.1618 14.8584 19.5034C15.0212 19.3409 15.2095 19.218 15.4104 19.1356V13.0952C15.2094 13.0131 15.0213 12.8911 14.8583 12.7273C14.3595 12.2289 14.2394 11.4968 14.4952 10.8843L12.0011 8.38964L5.41503 14.9757C4.86166 15.5294 4.86166 16.4266 5.41503 16.9799L15.0204 26.5851C15.5735 27.1383 16.4703 27.1383 17.0241 26.5851L26.5851 17.0252C27.1383 16.4717 27.1383 15.5743 26.5851 15.0209" fill="#F05133"/>
</g>
</g>
<defs>
<filter id="filter0_di_4306_2345" x="1.2" y="3.2" width="29.6" height="29.6" filterUnits="userSpaceOnUse" color-interpolation-filters="sRGB">
<feFlood flood-opacity="0" result="BackgroundImageFix"/>
<feColorMatrix in="SourceAlpha" type="matrix" values="0 0 0 0 0 0 0 0 0 0 0 0 0 0 0 0 0 0 127 0" result="hardAlpha"/>
<feOffset dy="2"/>
<feGaussianBlur stdDeviation="1.9"/>
<feComposite in2="hardAlpha" operator="out"/>
<feColorMatrix type="matrix" values="0 0 0 0 0 0 0 0 0 0 0 0 0 0 0 0 0 0 0.45 0"/>
<feBlend mode="normal" in2="BackgroundImageFix" result="effect1_dropShadow_4306_2345"/>
<feBlend mode="normal" in="SourceGraphic" in2="effect1_dropShadow_4306_2345" result="shape"/>
<feColorMatrix in="SourceAlpha" type="matrix" values="0 0 0 0 0 0 0 0 0 0 0 0 0 0 0 0 0 0 127 0" result="hardAlpha"/>
<feOffset dy="2"/>
<feGaussianBlur stdDeviation="0.5"/>
<feComposite in2="hardAlpha" operator="arithmetic" k2="-1" k3="1"/>
<feColorMatrix type="matrix" values="0 0 0 0 0 0 0 0 0 0 0 0 0 0 0 0 0 0 0.26 0"/>
<feBlend mode="normal" in2="shape" result="effect2_innerShadow_4306_2345"/>
</filter>
<linearGradient id="paint0_linear_4306_2345" x1="16" y1="0" x2="16" y2="32" gradientUnits="userSpaceOnUse">
<stop stop-color="#D9D9D9" stop-opacity="0"/>
<stop offset="1" stop-opacity="0.12"/>
</linearGradient>
<clipPath id="clip0_4306_2345">
<rect width="32" height="32" rx="8" fill="white"/>
</clipPath>
</defs>
</svg>
