<svg width="700" height="827" viewBox="0 0 700 827" fill="none" xmlns="http://www.w3.org/2000/svg">
<path d="M683.357 805.576C659.489 805.576 692.646 775.815 696.697 767.97C699.319 762.892 681.457 772.813 681.331 772.875C664.534 781.138 647.487 789.199 629.152 795.766C619.276 799.303 608.574 801.763 598.925 805.576C593.073 807.889 600.784 799.969 601.458 799.036C608.613 789.14 618.281 779.595 621.891 768.671C625.6 757.448 582.305 788.29 581.701 788.758C577.371 792.122 520.835 834.706 518.546 821.693C512.262 785.954 536.889 745.648 554.345 712.845C561.163 700.034 575.307 680.197 546.409 699.999C497.591 733.449 453.476 770.01 405.07 803.707C404.273 804.262 377.377 821.984 377.377 814.802C377.377 794.332 405.503 768.282 419.255 751.853C453.844 710.532 491.737 670.603 529.691 630.743C547.946 611.571 566.72 592.529 581.701 571.998C590.102 560.486 585.6 562.389 574.271 571.531C509.576 623.732 451.486 679.827 394.263 735.97C344.239 785.05 466.057 626.453 508.583 574.1C525.873 552.815 543.955 531.714 559.749 509.866C568.294 498.046 556.591 508.203 551.644 512.669C470.707 585.724 400.051 663.816 321.314 737.955C318.113 740.969 295.216 766.652 286.19 765.517C268.506 763.293 312.899 657.302 313.884 654.918C360.199 542.805 420.101 430.261 492.879 324.872C499.527 315.246 501.194 309.212 484.098 319.5C420.222 357.941 368.404 409.096 317.261 455.209C244.321 520.974 177.125 589.287 109.391 657.604C97.4534 669.644 89.1277 684.721 71.3962 692.641C69.8619 693.326 68.0449 690.732 68.3567 689.488C71.0584 678.703 93.6993 638.156 96.0503 634.13C181.331 488.07 299.446 350.378 435.466 224.2C453.642 207.338 476.294 191.83 492.879 174.214C508.065 158.085 459.29 204.911 442.896 220.463C367.447 292.034 291.953 363.601 215.943 434.887C170.015 477.962 124.625 522.804 69.7076 560.786C68.067 561.921 50.947 574.918 43.0272 574.918C40.5194 574.918 37.9848 573.013 37.6236 571.297C35.73 562.301 45.1195 536.096 47.0799 531.122C79.9581 447.693 134.594 368.175 187.237 290.069C214.19 250.079 242.716 210.567 268.629 170.243C276.881 157.401 297.326 134.707 295.985 119.557C294.928 107.619 261.66 125.336 247.352 132.053C190.885 158.564 142.826 193.884 96.0503 227.937C70.9399 246.218 48.4192 268.706 20.3995 284.93C-2.13019 297.976 37.314 245.76 50.7949 227.704C95.1563 168.285 142.629 109.873 194.835 53.5712C198.185 49.9584 237.256 1.01522 247.69 2.53439C250.395 2.92829 189.843 61.9763 181.833 67.7027C165.114 79.6553 148.38 95.592 127.797 104.608C111.629 111.69 97.2758 88.5732 89.2958 83.3524C63.3111 66.3524 29.2154 73.9621 2.5 84.5203" stroke="#C1C6CB" stroke-width="5" stroke-linecap="round"/>
</svg>
