<svg width="32" height="32" viewBox="0 0 32 32" fill="none" xmlns="http://www.w3.org/2000/svg">
<g clip-path="url(#clip0_4306_2375)">
<rect width="32" height="32" rx="8" fill="#F6F5F4"/>
<rect width="32" height="32" rx="8" fill="url(#paint0_linear_4306_2375)"/>
<g filter="url(#filter0_d_4306_2375)">
<path d="M25.8496 7.94336C26.146 7.94336 26.4224 8.04678 26.6338 8.2373C26.7814 8.37017 26.8855 8.53683 26.9414 8.72168C26.9655 8.80058 26.9805 8.88332 26.9863 8.96777L26.9902 25.0195C26.9902 25.0417 26.9882 25.0638 26.9863 25.0859C26.9525 25.5627 26.5569 25.9829 26.0713 26.0693H26.0684C26.0649 26.0696 26.061 26.0698 26.0576 26.0703C26.0529 26.071 26.0477 26.0722 26.043 26.0723L9.60059 27.0303H9.5498C9.22833 27.0145 8.93092 26.8955 8.69922 26.6855C8.43954 26.4504 8.29382 26.1286 8.2832 25.7764C8.28319 25.7696 8.28269 25.7628 8.28223 25.7559C8.28173 25.7487 8.28125 25.7409 8.28125 25.7334V10.0068C8.28125 9.98452 8.28127 9.96275 8.2832 9.94043C8.31902 9.43591 8.75717 8.99548 9.28027 8.94336C9.288 8.94336 9.29599 8.94262 9.30371 8.94141C9.30949 8.9405 9.31551 8.93887 9.32129 8.93848L25.7715 7.94629C25.7975 7.94443 25.8236 7.94336 25.8496 7.94336ZM10.498 12.7441C10.14 12.7618 9.81555 13.0047 9.81543 13.3838V24.4365C9.80004 25.1463 10.2977 25.3299 10.8604 25.292L24.627 24.5205H24.6299C25.3536 24.4933 25.459 23.9715 25.459 23.5664V12.4941C25.4587 12.1496 25.1656 11.9003 24.8086 11.918L10.498 12.7441ZM22.1729 4.97559C22.558 4.9756 22.9172 5.10934 23.1914 5.3584C23.229 5.39278 23.265 5.42864 23.2979 5.46582C23.5285 5.72409 23.6542 6.05343 23.6543 6.41016V6.79102C23.6545 6.80208 23.6583 7.102 23.3438 7.12207L23.3457 7.12402L9.16992 7.97949C8.13034 8.04175 7.28541 8.90852 7.28516 9.91113C7.28516 9.91113 7.27929 23.6213 7.27832 23.6436C7.26763 23.8699 7.0742 23.8701 6.91406 23.8701H6.60156C6.16819 23.8654 5.78262 23.7588 5.4834 23.4902C5.48303 23.4901 5.48206 23.4895 5.48145 23.4883C5.44681 23.4559 5.41459 23.422 5.38379 23.3887C5.14733 23.1285 5.01863 22.7951 5.01855 22.4346L5.01562 7.58105C5.01562 6.72137 5.76909 5.94946 6.66016 5.89648L22.0723 4.97852C22.1061 4.97666 22.1391 4.97559 22.1729 4.97559ZM17.6348 14.1689C19.2705 14.071 20.3173 14.8322 20.3193 16.1758C20.3203 17.1866 19.4507 17.9048 18.5918 18.1289C20.2012 18.2051 20.8731 19.0704 20.875 20.1738C20.8769 22.0634 19.4428 23.1333 17.2295 23.2666L17.1758 23.2705C15.5127 23.3702 14.3449 22.7617 14.3438 21.7109C14.3438 21.1125 14.7987 20.6053 15.4824 20.5645C15.5361 20.5609 15.5898 20.572 15.6436 20.5684C15.7792 21.6381 16.5306 22.0316 17.2812 21.9863C18.0055 21.9428 18.5146 21.4732 18.5146 20.8076V20.7812C18.5137 19.7432 17.614 19.6913 16.2598 19.6387L16.0439 18.4014C17.3041 18.1792 17.9345 17.7816 17.9336 17.0635C17.9335 16.2922 17.4887 15.8139 16.792 15.8555C16.1214 15.8953 15.8926 16.3885 15.8936 17.1465V17.2793C15.8137 17.2974 15.7469 17.3148 15.666 17.3193C15.1829 17.3483 14.8349 16.9702 14.834 16.292C14.8331 15.2547 15.7973 14.2786 17.6348 14.1689Z" fill="black"/>
</g>
<g filter="url(#filter1_i_4306_2375)">
<path d="M10.8623 25.2924C10.2995 25.3304 9.80131 25.1465 9.81676 24.4364V13.384C9.81676 13.0048 10.1411 12.7622 10.4993 12.7446L24.8105 11.9184C25.1677 11.9007 25.4602 12.1498 25.4602 12.4946V23.5665C25.4602 23.9717 25.355 24.4931 24.6309 24.52H24.629L24.628 24.5209L10.8623 25.2924Z" fill="white"/>
</g>
<path d="M25.8496 7.94336C26.146 7.94336 26.4224 8.04678 26.6338 8.2373C26.7814 8.37017 26.8855 8.53683 26.9414 8.72168C26.9655 8.80058 26.9805 8.88332 26.9863 8.96777L26.9902 25.0195C26.9902 25.0417 26.9882 25.0638 26.9863 25.0859C26.9525 25.5627 26.5569 25.9829 26.0713 26.0693H26.0684C26.0649 26.0696 26.061 26.0698 26.0576 26.0703C26.0529 26.071 26.0477 26.0722 26.043 26.0723L9.60059 27.0303H9.5498C9.22833 27.0145 8.93092 26.8955 8.69922 26.6855C8.43954 26.4504 8.29382 26.1286 8.2832 25.7764C8.28319 25.7696 8.28269 25.7628 8.28223 25.7559C8.28173 25.7487 8.28125 25.7409 8.28125 25.7334V10.0068C8.28125 9.98452 8.28127 9.96275 8.2832 9.94043C8.31902 9.43591 8.75717 8.99548 9.28027 8.94336C9.288 8.94336 9.29599 8.94262 9.30371 8.94141C9.30949 8.9405 9.31551 8.93887 9.32129 8.93848L25.7715 7.94629C25.7975 7.94443 25.8236 7.94336 25.8496 7.94336ZM10.498 12.7441C10.14 12.7618 9.81555 13.0047 9.81543 13.3838V24.4365C9.80004 25.1463 10.2977 25.3299 10.8604 25.292L24.627 24.5205H24.6299C25.3536 24.4933 25.459 23.9715 25.459 23.5664V12.4941C25.4587 12.1496 25.1656 11.9003 24.8086 11.918L10.498 12.7441ZM22.1729 4.97559C22.558 4.9756 22.9172 5.10934 23.1914 5.3584C23.229 5.39278 23.265 5.42864 23.2979 5.46582C23.5285 5.72409 23.6542 6.05343 23.6543 6.41016V6.79102C23.6545 6.80208 23.6583 7.102 23.3438 7.12207L23.3457 7.12402L9.16992 7.97949C8.13034 8.04175 7.28541 8.90852 7.28516 9.91113C7.28516 9.91113 7.27929 23.6213 7.27832 23.6436C7.26763 23.8699 7.0742 23.8701 6.91406 23.8701H6.60156C6.16819 23.8654 5.78262 23.7588 5.4834 23.4902C5.48303 23.4901 5.48206 23.4895 5.48145 23.4883C5.44681 23.4559 5.41459 23.422 5.38379 23.3887C5.14733 23.1285 5.01863 22.7951 5.01855 22.4346L5.01562 7.58105C5.01562 6.72137 5.76909 5.94946 6.66016 5.89648L22.0723 4.97852C22.1061 4.97666 22.1391 4.97559 22.1729 4.97559ZM17.6348 14.1689C19.2705 14.071 20.3173 14.8322 20.3193 16.1758C20.3203 17.1866 19.4507 17.9048 18.5918 18.1289C20.2012 18.2051 20.8731 19.0704 20.875 20.1738C20.8769 22.0634 19.4428 23.1333 17.2295 23.2666L17.1758 23.2705C15.5127 23.3702 14.3449 22.7617 14.3438 21.7109C14.3438 21.1125 14.7987 20.6053 15.4824 20.5645C15.5361 20.5609 15.5898 20.572 15.6436 20.5684C15.7792 21.6381 16.5306 22.0316 17.2812 21.9863C18.0055 21.9428 18.5146 21.4732 18.5146 20.8076V20.7812C18.5137 19.7432 17.614 19.6913 16.2598 19.6387L16.0439 18.4014C17.3041 18.1792 17.9345 17.7816 17.9336 17.0635C17.9335 16.2922 17.4887 15.8139 16.792 15.8555C16.1214 15.8953 15.8926 16.3885 15.8936 17.1465V17.2793C15.8137 17.2974 15.7469 17.3148 15.666 17.3193C15.1829 17.3483 14.8349 16.9702 14.834 16.292C14.8331 15.2547 15.7973 14.2786 17.6348 14.1689Z" fill="black"/>
</g>
<defs>
<filter id="filter0_d_4306_2375" x="1.21563" y="3.17559" width="29.5766" height="29.6547" filterUnits="userSpaceOnUse" color-interpolation-filters="sRGB">
<feFlood flood-opacity="0" result="BackgroundImageFix"/>
<feColorMatrix in="SourceAlpha" type="matrix" values="0 0 0 0 0 0 0 0 0 0 0 0 0 0 0 0 0 0 127 0" result="hardAlpha"/>
<feOffset dy="2"/>
<feGaussianBlur stdDeviation="1.9"/>
<feComposite in2="hardAlpha" operator="out"/>
<feColorMatrix type="matrix" values="0 0 0 0 0 0 0 0 0 0 0 0 0 0 0 0 0 0 0.45 0"/>
<feBlend mode="normal" in2="BackgroundImageFix" result="effect1_dropShadow_4306_2375"/>
<feBlend mode="normal" in="SourceGraphic" in2="effect1_dropShadow_4306_2375" result="shape"/>
</filter>
<filter id="filter1_i_4306_2375" x="9.81641" y="11.9175" width="17.6445" height="15.3794" filterUnits="userSpaceOnUse" color-interpolation-filters="sRGB">
<feFlood flood-opacity="0" result="BackgroundImageFix"/>
<feBlend mode="normal" in="SourceGraphic" in2="BackgroundImageFix" result="shape"/>
<feColorMatrix in="SourceAlpha" type="matrix" values="0 0 0 0 0 0 0 0 0 0 0 0 0 0 0 0 0 0 127 0" result="hardAlpha"/>
<feOffset dx="2" dy="2"/>
<feGaussianBlur stdDeviation="2"/>
<feComposite in2="hardAlpha" operator="arithmetic" k2="-1" k3="1"/>
<feColorMatrix type="matrix" values="0 0 0 0 0 0 0 0 0 0 0 0 0 0 0 0 0 0 0.25 0"/>
<feBlend mode="normal" in2="shape" result="effect1_innerShadow_4306_2375"/>
</filter>
<linearGradient id="paint0_linear_4306_2375" x1="16" y1="0" x2="16" y2="32" gradientUnits="userSpaceOnUse">
<stop stop-opacity="0"/>
<stop offset="1" stop-opacity="0.12"/>
</linearGradient>
<clipPath id="clip0_4306_2375">
<rect width="32" height="32" rx="8" fill="white"/>
</clipPath>
</defs>
</svg>
