<svg width="32" height="32" viewBox="0 0 32 32" fill="none" xmlns="http://www.w3.org/2000/svg">
<rect width="32" height="32" rx="8" fill="#3D3E3E"/>
<rect width="32" height="32" rx="8" fill="url(#paint0_linear_4306_2336)"/>
<g filter="url(#filter0_di_4306_2336)">
<path fill-rule="evenodd" clip-rule="evenodd" d="M7.5 8.10636C7.5 8.71707 7.99974 9.21239 8.61591 9.21239H17.8636C18.9176 9.21239 19.7855 9.53511 20.4675 10.1805C21.1494 10.826 21.4904 11.6556 21.4904 12.6697C21.4904 13.607 21.1494 14.3752 20.4671 14.9743C19.7855 15.5584 18.9176 15.8502 17.8636 15.8502H13.8445C13.228 15.8502 12.7283 16.3452 12.7283 16.9566C12.7283 17.5673 13.228 18.0626 13.8445 18.0626H18.2825L22.281 24.4237C22.529 24.8081 22.8776 25 23.327 25C23.8232 25 24.1719 24.8081 24.3733 24.4237C24.5747 24.0245 24.5359 23.6018 24.2572 23.1563L20.7 17.4863C21.661 17.0562 22.4205 16.4262 22.9783 15.5966C23.5365 14.7516 23.8155 13.776 23.8155 12.6697C23.8155 11.5479 23.5595 10.5646 23.0483 9.71961C22.5524 8.87425 21.8551 8.21371 20.956 7.73736C20.0569 7.24557 19.0263 7 17.8636 7H8.61623C7.99974 7 7.5 7.495 7.5 8.10636Z" fill="white"/>
</g>
<defs>
<filter id="filter0_di_4306_2336" x="3.7" y="5.2" width="24.6" height="25.6" filterUnits="userSpaceOnUse" color-interpolation-filters="sRGB">
<feFlood flood-opacity="0" result="BackgroundImageFix"/>
<feColorMatrix in="SourceAlpha" type="matrix" values="0 0 0 0 0 0 0 0 0 0 0 0 0 0 0 0 0 0 127 0" result="hardAlpha"/>
<feOffset dy="2"/>
<feGaussianBlur stdDeviation="1.9"/>
<feComposite in2="hardAlpha" operator="out"/>
<feColorMatrix type="matrix" values="0 0 0 0 0 0 0 0 0 0 0 0 0 0 0 0 0 0 0.45 0"/>
<feBlend mode="normal" in2="BackgroundImageFix" result="effect1_dropShadow_4306_2336"/>
<feBlend mode="normal" in="SourceGraphic" in2="effect1_dropShadow_4306_2336" result="shape"/>
<feColorMatrix in="SourceAlpha" type="matrix" values="0 0 0 0 0 0 0 0 0 0 0 0 0 0 0 0 0 0 127 0" result="hardAlpha"/>
<feOffset dy="1"/>
<feGaussianBlur stdDeviation="0.5"/>
<feComposite in2="hardAlpha" operator="arithmetic" k2="-1" k3="1"/>
<feColorMatrix type="matrix" values="0 0 0 0 0 0 0 0 0 0 0 0 0 0 0 0 0 0 0.25 0"/>
<feBlend mode="normal" in2="shape" result="effect2_innerShadow_4306_2336"/>
</filter>
<linearGradient id="paint0_linear_4306_2336" x1="16" y1="0" x2="16" y2="32" gradientUnits="userSpaceOnUse">
<stop stop-color="#D9D9D9" stop-opacity="0"/>
<stop offset="1" stop-opacity="0.12"/>
</linearGradient>
</defs>
</svg>
