<svg width="32" height="32" viewBox="0 0 32 32" fill="none" xmlns="http://www.w3.org/2000/svg">
<rect width="32" height="32" rx="8" fill="#1C1E21"/>
<rect width="32" height="32" rx="8" fill="url(#paint0_linear_4306_2338)"/>
<g clip-path="url(#clip0_4306_2338)" filter="url(#filter0_di_4306_2338)">
<g filter="url(#filter1_i_4306_2338)">
<path d="M25.2927 8.11842L21.1743 6.12401C20.6976 5.89316 20.1279 5.99053 19.7538 6.36682L6.27171 18.7305C5.90907 19.063 5.90949 19.6373 6.27261 19.9693L7.37387 20.9762C7.67073 21.2477 8.11781 21.2677 8.43743 21.0238L24.673 8.63583C25.2177 8.22022 26 8.61096 26 9.2986V9.25051C26 8.76783 25.7251 8.32782 25.2927 8.11842Z" fill="#0065A9"/>
</g>
<g filter="url(#filter2_d_4306_2338)">
<g filter="url(#filter3_i_4306_2338)">
<path d="M25.2927 23.8813L21.1743 25.8758C20.6976 26.1066 20.1279 26.0092 19.7538 25.6329L6.27171 13.2693C5.90907 12.9367 5.90949 12.3625 6.27261 12.0305L7.37387 11.0235C7.67073 10.7521 8.11781 10.7321 8.43743 10.976L24.673 23.3639C25.2177 23.7795 26 23.3888 26 22.7012V22.7493C26 23.2319 25.7251 23.6719 25.2927 23.8813Z" fill="#007ACC"/>
</g>
</g>
<g filter="url(#filter4_d_4306_2338)">
<path d="M21.1746 25.8762C20.6978 26.1069 20.1281 26.0093 19.7539 25.633C20.2149 26.0966 21.0031 25.7682 21.0031 25.1125V6.88745C21.0031 6.23172 20.2149 5.90333 19.7539 6.367C20.1281 5.99068 20.6978 5.89317 21.1746 6.12381L25.2923 8.11549C25.725 8.32477 26.0001 8.76494 26.0001 9.24783V22.7522C26.0001 23.2351 25.725 23.6753 25.2923 23.8845L21.1746 25.8762Z" fill="#1F9CF0"/>
</g>
</g>
<defs>
<filter id="filter0_di_4306_2338" x="2.2" y="4.2" width="27.6" height="27.6" filterUnits="userSpaceOnUse" color-interpolation-filters="sRGB">
<feFlood flood-opacity="0" result="BackgroundImageFix"/>
<feColorMatrix in="SourceAlpha" type="matrix" values="0 0 0 0 0 0 0 0 0 0 0 0 0 0 0 0 0 0 127 0" result="hardAlpha"/>
<feOffset dy="2"/>
<feGaussianBlur stdDeviation="1.9"/>
<feComposite in2="hardAlpha" operator="out"/>
<feColorMatrix type="matrix" values="0 0 0 0 0 0 0 0 0 0 0 0 0 0 0 0 0 0 0.45 0"/>
<feBlend mode="normal" in2="BackgroundImageFix" result="effect1_dropShadow_4306_2338"/>
<feBlend mode="normal" in="SourceGraphic" in2="effect1_dropShadow_4306_2338" result="shape"/>
<feColorMatrix in="SourceAlpha" type="matrix" values="0 0 0 0 0 0 0 0 0 0 0 0 0 0 0 0 0 0 127 0" result="hardAlpha"/>
<feOffset/>
<feGaussianBlur stdDeviation="0.5"/>
<feComposite in2="hardAlpha" operator="arithmetic" k2="-1" k3="1"/>
<feColorMatrix type="matrix" values="0 0 0 0 0 0 0 0 0 0 0 0 0 0 0 0 0 0 0.26 0"/>
<feBlend mode="normal" in2="shape" result="effect2_innerShadow_4306_2338"/>
</filter>
<filter id="filter1_i_4306_2338" x="6" y="6" width="20" height="16.1943" filterUnits="userSpaceOnUse" color-interpolation-filters="sRGB">
<feFlood flood-opacity="0" result="BackgroundImageFix"/>
<feBlend mode="normal" in="SourceGraphic" in2="BackgroundImageFix" result="shape"/>
<feColorMatrix in="SourceAlpha" type="matrix" values="0 0 0 0 0 0 0 0 0 0 0 0 0 0 0 0 0 0 127 0" result="hardAlpha"/>
<feOffset dy="2"/>
<feGaussianBlur stdDeviation="0.5"/>
<feComposite in2="hardAlpha" operator="arithmetic" k2="-1" k3="1"/>
<feColorMatrix type="matrix" values="0 0 0 0 0 0 0 0 0 0 0 0 0 0 0 0 0 0 0.12 0"/>
<feBlend mode="normal" in2="shape" result="effect1_innerShadow_4306_2338"/>
</filter>
<filter id="filter2_d_4306_2338" x="-2.33334" y="2.47232" width="36.6667" height="31.861" filterUnits="userSpaceOnUse" color-interpolation-filters="sRGB">
<feFlood flood-opacity="0" result="BackgroundImageFix"/>
<feColorMatrix in="SourceAlpha" type="matrix" values="0 0 0 0 0 0 0 0 0 0 0 0 0 0 0 0 0 0 127 0" result="hardAlpha"/>
<feOffset/>
<feGaussianBlur stdDeviation="4.16667"/>
<feColorMatrix type="matrix" values="0 0 0 0 0 0 0 0 0 0 0 0 0 0 0 0 0 0 0.25 0"/>
<feBlend mode="overlay" in2="BackgroundImageFix" result="effect1_dropShadow_4306_2338"/>
<feBlend mode="normal" in="SourceGraphic" in2="effect1_dropShadow_4306_2338" result="shape"/>
</filter>
<filter id="filter3_i_4306_2338" x="6" y="9.80566" width="20" height="16.1943" filterUnits="userSpaceOnUse" color-interpolation-filters="sRGB">
<feFlood flood-opacity="0" result="BackgroundImageFix"/>
<feBlend mode="normal" in="SourceGraphic" in2="BackgroundImageFix" result="shape"/>
<feColorMatrix in="SourceAlpha" type="matrix" values="0 0 0 0 0 0 0 0 0 0 0 0 0 0 0 0 0 0 127 0" result="hardAlpha"/>
<feOffset dy="-2"/>
<feGaussianBlur stdDeviation="0.5"/>
<feComposite in2="hardAlpha" operator="arithmetic" k2="-1" k3="1"/>
<feColorMatrix type="matrix" values="0 0 0 0 0 0 0 0 0 0 0 0 0 0 0 0 0 0 0.12 0"/>
<feBlend mode="normal" in2="shape" result="effect1_innerShadow_4306_2338"/>
</filter>
<filter id="filter4_d_4306_2338" x="11.4206" y="-2.33334" width="22.9128" height="36.6667" filterUnits="userSpaceOnUse" color-interpolation-filters="sRGB">
<feFlood flood-opacity="0" result="BackgroundImageFix"/>
<feColorMatrix in="SourceAlpha" type="matrix" values="0 0 0 0 0 0 0 0 0 0 0 0 0 0 0 0 0 0 127 0" result="hardAlpha"/>
<feOffset/>
<feGaussianBlur stdDeviation="4.16667"/>
<feColorMatrix type="matrix" values="0 0 0 0 0 0 0 0 0 0 0 0 0 0 0 0 0 0 0.25 0"/>
<feBlend mode="overlay" in2="BackgroundImageFix" result="effect1_dropShadow_4306_2338"/>
<feBlend mode="normal" in="SourceGraphic" in2="effect1_dropShadow_4306_2338" result="shape"/>
</filter>
<linearGradient id="paint0_linear_4306_2338" x1="16" y1="0" x2="16" y2="32" gradientUnits="userSpaceOnUse">
<stop stop-color="#D9D9D9" stop-opacity="0"/>
<stop offset="1" stop-opacity="0.12"/>
</linearGradient>
<clipPath id="clip0_4306_2338">
<rect width="20" height="20" fill="white" transform="translate(6 6)"/>
</clipPath>
</defs>
</svg>
