<svg width="32" height="32" viewBox="0 0 32 32" fill="none" xmlns="http://www.w3.org/2000/svg">
<rect width="32" height="32" rx="8" fill="#1C1E21"/>
<rect width="32" height="32" rx="8" fill="url(#paint0_linear_4306_2332)"/>
<g filter="url(#filter0_i_4306_2332)">
<path d="M16 6C21.5228 6 26 10.4772 26 16C26 21.5228 21.5228 26 16 26C10.4772 26 6 21.5228 6 16C6 10.4772 10.4772 6 16 6ZM16 7.79492C11.4684 7.79492 7.79492 11.4684 7.79492 16C7.79492 20.5316 11.4684 24.2051 16 24.2051C20.5316 24.2051 24.2051 20.5316 24.2051 16C24.2051 11.4684 20.5316 7.79492 16 7.79492ZM15.999 9.33398C19.6807 9.33417 22.665 12.3183 22.665 16C22.665 19.6818 19.6808 22.6668 15.999 22.667C12.3171 22.667 9.33203 19.6819 9.33203 16C9.33211 12.3182 12.3172 9.33398 15.999 9.33398ZM15.999 10.6152C13.0252 10.6152 10.6143 13.0262 10.6143 16C10.6143 18.9738 13.0252 21.3848 15.999 21.3848C18.9727 21.3846 21.3838 18.9737 21.3838 16C21.3837 13.0263 18.9727 10.6154 15.999 10.6152ZM15.998 12.1543C18.1222 12.1543 19.8447 13.8758 19.8447 16C19.8447 18.1242 18.1222 19.8457 15.998 19.8457C13.8741 19.8455 12.1524 18.124 12.1523 16C12.1523 13.876 13.8741 12.1545 15.998 12.1543ZM15.998 12.9229C14.2989 12.9231 12.9219 14.3008 12.9219 16C12.9219 17.6992 14.2989 19.0769 15.998 19.0771C17.6974 19.0771 19.0752 17.6993 19.0752 16C19.0752 14.3007 17.6974 12.9229 15.998 12.9229Z" fill="white"/>
</g>
<defs>
<filter id="filter0_i_4306_2332" x="6" y="5" width="20" height="21" filterUnits="userSpaceOnUse" color-interpolation-filters="sRGB">
<feFlood flood-opacity="0" result="BackgroundImageFix"/>
<feBlend mode="normal" in="SourceGraphic" in2="BackgroundImageFix" result="shape"/>
<feColorMatrix in="SourceAlpha" type="matrix" values="0 0 0 0 0 0 0 0 0 0 0 0 0 0 0 0 0 0 127 0" result="hardAlpha"/>
<feOffset dy="-1"/>
<feGaussianBlur stdDeviation="1"/>
<feComposite in2="hardAlpha" operator="arithmetic" k2="-1" k3="1"/>
<feColorMatrix type="matrix" values="0 0 0 0 0 0 0 0 0 0 0 0 0 0 0 0 0 0 0.7 0"/>
<feBlend mode="normal" in2="shape" result="effect1_innerShadow_4306_2332"/>
</filter>
<linearGradient id="paint0_linear_4306_2332" x1="16" y1="0" x2="16" y2="32" gradientUnits="userSpaceOnUse">
<stop stop-color="#D9D9D9" stop-opacity="0"/>
<stop offset="1" stop-opacity="0.12"/>
</linearGradient>
</defs>
</svg>
